<ttFont>
          <CharString index="0">
            79 210 -81 21 hlineto
            40 9 28 33 7 8 -1 -3 9 vhcurveto
            5 19 2 36 56 vvcurveto
            52 -2 35 -4 22 vhcurveto
            4 -13 -10 2 -37 hhcurveto
            -50 -43 -25 -44 -23 hvcurveto
            -18 -34 -8 -49 -87 vvcurveto
            -72 -45 -210 46 vlineto
            return
          </CharString>
          <CharString index="1">
            17 615 rmoveto
            -221 243 -16 -100 vvcurveto
            -30 -22 -20 -42 -51 -90 30 15 -30 vhcurveto
            -6 -39 -8 -87 -43 vvcurveto
            -30 4 -25 5 -24 vhcurveto
            -23 40 104 -13 51 hhcurveto
            112 128 62 170 132 -76 63 -63 44 hvcurveto
            -40 28 -41 29 41 vvcurveto
            34 28 22 64 31 46 -5 -4 22 vhcurveto
            2 32 2 35 39 vvcurveto
            39 -2 26 -2 35 vhcurveto
            15 -51 -68 4 -33 hhcurveto
            -112 -145 -45 -170 hvcurveto
            return
          </CharString>
          <CharString index="2">
            398 -3 rmoveto
            150 0 56 -4 62 vhcurveto
            -204 112 175 149 -175 116 201 hlineto
            2 39 2 58 33 22 -1 10 17 vvcurveto
            -3 -108 -153 -1 -105 hhcurveto
            -53 2 -220 -202 vvcurveto
            return
          </CharString>
          <CharString index="3">
            hstemhm
            10 216 -37 189 hintmask 11110000
            82 561 rmoveto
            -52 -42 -20 -60 -56 vvcurveto
            -95 60 -34 51 -26 vhcurveto
            hintmask 11101000
            27 -14 41 -21 -31 vvcurveto
            -18 -15 -12 -27 -36 -52 20 13 -29 vhcurveto
            -6 -24 -3 -48 -25 vvcurveto
            -25 3 -27 6 -23 vhcurveto
            -18 40 60 -6 38 hhcurveto
            96 114 47 117 67 -38 38 -36 24 hvcurveto
            hintmask 11110000
            -31 20 -47 25 28 vvcurveto
            17 19 5 24 32 39 -10 -1 6 vhcurveto
            1 14 2 12 40 vvcurveto
            28 -1 50 -2 81 vhcurveto
            11 -35 -39 7 -38 hhcurveto
            -53 -54 -12 -36 -45 hvcurveto
            return
          </CharString>
          <CharString index="4">
            -9 83 74 -2 31 hhcurveto
            271 128 166 247 126 -33 115 -68 77 hvcurveto
            83 -74 -101 27 -117 hhcurveto
            -49 -74 -5 -10 -75 hvcurveto
            194 -151 rmoveto
            133 42 -115 -84 -112 -74 -91 -99 -9 -13 0 3 -12 hvcurveto
            -1 65 -3 84 60 vvcurveto
            62 0 63 1 62 vhcurveto
            1 11 11 2 13 hhcurveto
            return
          </CharString>
          <CharString index="5">
            35 -35 -52 26 -54 hhcurveto
            -125 -96 -140 -182 -174 89 -124 119 51 55 22 38 48 hvcurveto
            return
          </CharString>
          <CharString index="6">
            vstem
            387 830 rmoveto
            -247 -130 -177 -246 -257 141 -161 234 40 37 4 8 37 hvcurveto
            48 1 48 50 48 -1 52 47 vvcurveto
            -19 -30 -40 -5 -23 hhcurveto
            -99 -74 91 112 84 42 111 133 35 31 -8 -16 25 hvcurveto
            28 1 35 29 29 -1 26 22 vvcurveto
            10 -31 -33 7 -48 hhcurveto
            return
          </CharString>
          <CharString index="7">
            -76 77 hlineto
            106 0 82 3 89 vhcurveto
            73 hlineto
            1 30 0 30 30 vvcurveto
            31 0 30 -1 30 vhcurveto
            -308 hlineto
            -1 -29 -2 -31 -31 vvcurveto
            -30 2 -30 1 -30 vhcurveto
            74 hlineto
            return
          </CharString>
          <CharString index="8">
            301 609 rmoveto
            -194 -97 -131 -180 -190 107 -119 180 35 39 4 8 37 hvcurveto
            48 1 49 47 48 -1 48 44 vvcurveto
            -19 -26 -32 -11 -26 hhcurveto
            -55 -47 50 58 42 25 58 80 32 28 -10 -18 21 hvcurveto
            24 1 29 28 27 -1 27 22 vvcurveto
            11 -31 -35 6 -41 hhcurveto
            return
          </CharString>
          <CharString index="9">
            -32 -35 -28 -33 -32 -20 25 40 vhcurveto
            300 -147 -428 vlineto
            -40 4 -39 5 -18 vhcurveto
            -48 15 55 -36 58 hhcurveto
            46 49 25 39 32 hvcurveto
            return
          </CharString>
          <CharString index="10">
            39 -3 37 -4 31 vhcurveto
            -243 hlineto
            240 212 rlineto
            4 45 1 28 21 vvcurveto
            30 -2 25 -3 24 vhcurveto
            -378 hlineto
            -4 -28 -3 -36 -37 vvcurveto
            -39 3 -35 4 -26 vhcurveto
            193 hlineto
            -211 -192 rlineto
            -7 -36 -3 -35 -41 vvcurveto
            return
          </CharString>
          <CharString index="11">
            166 hmoveto
            24 164 rlineto
            154 hlineto
            25 -164 rlineto
            169 hlineto
            -147 818 rlineto
            -247 -41 callsubr
            271 673 rmoveto
            50 -330 rlineto
            -100 hlineto
            return
          </CharString>
          <CharString index="12">
            548 598 rmoveto
            -39 -318 rlineto
            -29 -3 -5 -13 -11 hhcurveto
            -12 -5 14 28 -4 hvcurveto
            -52 318 rlineto
            -136 hlineto
            -49 -318 rlineto
            -29 -4 -4 -13 -11 hhcurveto
            -13 -5 14 28 -4 hvcurveto
            -41 318 rlineto
            -150 hlineto
            116 -598 rlineto
            184 hlineto
            49 302 50 -302 rlineto
            185 hlineto
            114 598 rlineto
            return
          </CharString>
          <CharString index="13">
            -7 -216 -7 -120 -98 vvcurveto
            -186 25 -209 255 249 27 200 196 100 -7 140 -3 194 vhcurveto
            return
          </CharString>
          <CharString index="14">
            437 455 rmoveto
            -185 vlineto
            -1 -7 -6 0 -6 hhcurveto
            -124 -61 98 102 89 46 110 147 43 37 -9 -17 32 hvcurveto
            27 1 36 29 29 -1 26 21 vvcurveto
            12 -38 -38 8 -56 hhcurveto
            -262 -134 -177 -246 -257 145 -161 246 36 56 3 9 72 hvcurveto
            454 vlineto
            return
          </CharString>
          <CharString index="15">
            -19 callgsubr
            -55 -41 -41 -50 -47 -33 37 54 vhcurveto
            return
          </CharString>
          <CharString index="16">
            64 51 -58 71 hhcurveto
            29 35 10 29 38 hvcurveto
            108 vlineto
            -34 -39 -34 -13 -28 hhcurveto
            return
          </CharString>
          <CharString index="17">
            rmoveto
            171 114 -30 68 -141 -69 -141 69 -30 -68 rlineto
            endchar
          </CharString>
          <CharString index="18">
            31 -36 callsubr
            1 -76 0 -82 -86 vvcurveto
            -185 -2 -204 -4 -185 vhcurveto
            323 hlineto
            3 46 1 45 44 vvcurveto
            43 -1 42 -3 44 vhcurveto
            -157 -6 rlineto
            111 0 84 8 365 vhcurveto
            return
          </CharString>
          <CharString index="19">
            306 598 rmoveto
            -57 -291 rlineto
            -30 -6 -7 -17 -9 hhcurveto
            -10 -4 17 30 -6 hvcurveto
            -55 291 rlineto
            -158 hlineto
            154 -581 -47 -198 rlineto
            151 hlineto
            206 779 rlineto
            return
          </CharString>
          <CharString index="20">
            75 598 rmoveto
            -60 -266 60 hlineto
            -1 -39 -3 -103 -33 vvcurveto
            -82 22 -83 96 -13 callsubr
            vhcurveto
            1 8 0 23 25 vvcurveto
            29 0 34 -2 9 vhcurveto
            7 callgsubr
            return
          </CharString>
          <CharString index="21">
            583 259 rmoveto
            -113 558 -128 -6 -114 -552 -63 559 rlineto
            -166 hlineto
            126 -818 rlineto
            192 hlineto
            87 438 87 -438 rlineto
            197 hlineto
            122 818 rlineto
            -166 hlineto
            return
          </CharString>
          <CharString index="22">
            rmoveto
            -57 42 -28 42 47 41 34 54 49 -35 35 -49 -44 -44 -28 -59 vhcurveto
            endchar
          </CharString>
          <CharString index="23">
            3 108 2 139 8 246 rrcurveto
            -170 hlineto
            2 -43 0 -24 -164 vvcurveto
            -241 0 -206 -7 -163 vhcurveto
            165 hlineto
            -3 102 -1 71 77 vvcurveto
            7 hlineto
            139 -250 rlineto
            171 hlineto
            -171 315 160 283 rlineto
            return
          </CharString>
          <CharString index="24">
            -67 -40 -60 -52 -51 36 -48 70 55 49 48 60 46 -38 57 -65 hvcurveto
            return
          </CharString>
          <CharString index="25">
            rmoveto
            -69 -48 -39 -87 -49 -48 12 25 -49 vhcurveto
            -123 vlineto
            -25 45 56 -14 59 hhcurveto
            142 91 78 141 20 hvcurveto
            7 48 3 83 118 vvcurveto
            322 -142 -50 vlineto
            return
          </CharString>
          <CharString index="26">
            rmoveto
            -146 -28 callsubr
            -191 rlineto
            91 hlineto
            endchar
          </CharString>
          <CharString index="27">
            132 10 -21 382 182 111 166 hstem
            57 152 211 222 vstem
            51 815 rmoveto
            3 -75 2 -90 1 -97 rrcurveto
            -50 hlineto
            -1 -29 -2 -31 -31 vvcurveto
            -30 2 -31 1 -30 vhcurveto
            51 hlineto
            -143 -57 callgsubr
            -17 0 3 -12 hvcurveto
            106 70 vlineto
            1 30 0 31 30 vvcurveto
            31 0 30 -1 30 vhcurveto
            -70 108 hlineto
            1 11 12 2 13 hhcurveto
            endchar
          </CharString>
          <CharString index="28">
            -64 -48 57 -74 hhcurveto
            -28 -29 -8 -20 -35 hvcurveto
            endchar
          </CharString>
          <CharString index="29">
            26 598 rmoveto
            -193 0 -189 -2 -216 vhcurveto
            147 277 hlineto
            34 23 27 49 15 25 -3 -5 12 vhcurveto
            2 44 3 54 53 vvcurveto
            return
          </CharString>
          <CharString index="30">
            -296 -171 139 -196 hlineto
            -129 -18 -54 -83 -29 -25 7 14 -33 vhcurveto
            -2 -48 -2 -48 -48 vvcurveto
            -47 2 -48 2 -45 vhcurveto
            return
          </CharString>
          <CharString index="31">
            -116 rmoveto
            -10 -25 -29 -6 -19 hhcurveto
            -15 -7 7 14 return
          </CharString>
          <CharString index="32">
            -49 137 vlineto
            -308 5 callgsubr
            return
          </CharString>
          <CharString index="33">
            -75 callsubr
            -92 callsubr
            return
          </CharString>
          <CharString index="34">
            vvcurveto
            -43 33 -27 53 27 36 7 15 43 vhcurveto
            return
          </CharString>
          <CharString index="35">
            14 0 15 12 359 vhcurveto
            -176 hlineto
            return
          </CharString>
          <CharString index="36">
            -63 1 -82 -69 vvcurveto
            -50 hlineto
            -2 -28 0 -27 -27 vvcurveto
            -22 1 -22 1 -22 vhcurveto
            212 hlineto
            return
          </CharString>
          <CharString index="37">
            -12 44 50 -4 32 hhcurveto
            125 68 68 99 17 hvcurveto
            6 34 3 48 190 vvcurveto
            return
          </CharString>
          <CharString index="38">
            -61 -11 244 -212 -48 callsubr
            return
          </CharString>
          <CharString index="39">
            4 -13 -10 2 -37 hhcurveto
            -50 -43 -25 -44 -23 hvcurveto
            -18 -34 -8 -49 -87 vvcurveto
            -72 -45 -210 46 vlineto
            endchar
          </CharString>
          <CharString index="40">
            -21 377 149 116 179 return
          </CharString>
          <CharString index="41">
            hstemhm
            20 178 -164 176 return
          </CharString>
          <CharString index="42">
            -57 callsubr
            hintmask 11001000
            -71 callsubr
            hintmask 11010000
            -42 callgsubr
            hintmask 11100000
            -26 callgsubr
            endchar
          </CharString>
          <CharString index="43">
            rmoveto
            57 36 40 49 48 38 -41 -51 -55 -41 -41 -50 -47 -33 37 54 vhcurveto
            return
          </CharString>
          <CharString index="44">
            hstem
            195 157 vstem
            352 -36 callsubr
            -54 callgsubr
            return
          </CharString>
          <CharString index="45">
            5 -125 2 -167 -173 vvcurveto
            -122 -1 -104 -2 -124 vhcurveto
            return
          </CharString>
          <CharString index="46">
            -46 callsubr
            139 return
          </CharString>
          <CharString index="47">
            147 582 -147 hlineto
            return
          </CharString>
          <CharString index="48">
            -38 48 55 -22 51 hhcurveto
            119 89 124 174 182 -96 140 -125 -54 -51 -26 -35 -36 hvcurveto
            293 -142 vlineto
            return
          </CharString>
          <CharString index="49">
            262 160 hstem
            27 422 rmoveto
            -2 -27 0 -27 -26 vvcurveto
            -27 0 -26 2 -27 vhcurveto
            return
          </CharString>
          <CharString index="50">
            rmoveto
            -3 -17 0 -38 -18 vvcurveto
            -17 0 -18 3 -17 vhcurveto
            50 8 rlineto
            return
          </CharString>
          <CharString index="51">
            100 -42 42 -42 99 hstemhm
            return
          </CharString>
          <CharString index="52">
            136 320 hlineto
            return
          </CharString>
          <CharString index="53">
            rmoveto
            79 hlineto
            43 201 rlineto
            -104 hlineto
            endchar
          </CharString>
          <CharString index="54">
            37 -28 20 -31 -35 vvcurveto
            -42 -26 -49 -52 -46 vhcurveto
            57 -56 rlineto
            101 75 75 112 84 vvcurveto
            64 -40 43 -61 return
          </CharString>
          <CharString index="55">
            855 rmoveto
            -340 -859 62 -38 347 859 rlineto
            return
          </CharString>
          <CharString index="56">
            -50 -3 -32 -34 -42 hhcurveto
            return
          </CharString>
          <CharString index="57">
            -21 320 210 return
          </CharString>
          <CharString index="58">
            rmoveto
            48 27 46 55 17 15 -5 -9 12 vhcurveto
            -108 -141 rlineto
            -12 17 -6 22 22 vvcurveto
            82 -93 rmoveto
            -9 -8 1 2 -8 hvcurveto
            99 129 rlineto
            5 -13 2 -13 -13 vvcurveto
            -47 -27 -46 -54 vhcurveto
            endchar
          </CharString>
          <CharString index="59">
            -21 598 -20 return
          </CharString>
          <CharString index="60">
            30 818 0 callgsubr
            -55 -182 vvcurveto
            -207 -1 -133 -4 -117 vhcurveto
            176 hlineto
            -1 141 -1 156 99 vvcurveto
            4 hlineto
            189 -396 rlineto
            187 hlineto
            -208 420 rlineto
            return
          </CharString>
          <CharString index="61">
            -39 callgsubr
            171 return
          </CharString>
          <CharString index="62">
            79 266 -77 116 -137 hlineto
            return
          </CharString>
          <CharString index="63">
            -165 21 -21 637 181 return
          </CharString>
          <CharString index="64">
            47 -2 46 -3 35 vhcurveto
            -43 -60 -37 -50 -33 hvcurveto
            return
          </CharString>
          <CharString index="65">
            88 10 -28 callgsubr
            return
          </CharString>
          <CharString index="66">
            hlineto
            -148 -818 rlineto
            return
          </CharString>
          <CharString index="67">
            178 433 rmoveto
            34 27 -32 -47 5 hvcurveto
            -131 hlineto
            49 6 25 30 34 hhcurveto
            -259 -300 rmoveto
            -18 -18 -29 -13 -20 hhcurveto
            -26 -21 22 30 43 42 24 63 hvcurveto
            return
          </CharString>
          <CharString index="68">
            rmoveto
            -237 -242 120 -70 305 312 -305 311 -120 -69 rlineto
            return
          </CharString>
          <CharString index="69">
            rmoveto
            -119 69 -306 -311 306 -312 119 70 -236 242 rlineto
            return
          </CharString>
          <CharString index="70">
            26 -44 callgsubr
            return
          </CharString>
          <CharString index="71">
            818 rmoveto
            return
          </CharString>
          <CharString index="72">
            -21 164 179 return
          </CharString>
          <CharString index="73">
            162 -162 220 -166 108 return
          </CharString>
          <CharString index="74">
            -33 2 -33 6 -27 vhcurveto
            return
          </CharString>
          <CharString index="75">
            hstemhm
            24 147 return
          </CharString>
          <CharString index="76">
            -3 -25 -1 -24 -24 vvcurveto
            -25 1 -23 3 -25 vhcurveto
            return
          </CharString>
          <CharString index="77">
            -21 366 243 -11 -20 return
          </CharString>
          <CharString index="78">
            -21 679 162 return
          </CharString>
          <CharString index="79">
            hlineto
            128 return
          </CharString>
          <CharString index="80">
            132 474 -20 136 -20 hstemhm
            71 139 -139 218 return
          </CharString>
          <CharString index="81">
            598 rmoveto
            -138 -250 rlineto
            -7 return
          </CharString>
          <CharString index="82">
            -45 46 62 -24 80 hhcurveto
            203 88 154 273 116 -17 92 -36 68 hvcurveto
            85 126 rlineto
            -96 hlineto
            -38 -57 rlineto
            return
          </CharString>
          <CharString index="83">
            18 -192 125 525 151 -11 -20 return
          </CharString>
          <CharString index="84">
            309 830 rmoveto
            -197 -94 -142 -272 -120 17 -97 37 -71 hvcurveto
            -86 -128 rlineto
            96 hlineto
            39 58 rlineto
            return
          </CharString>
          <CharString index="85">
            -40 36 53 -21 72 hhcurveto
            163 64 109 201 85 -12 69 -26 51 hvcurveto
            72 94 rlineto
            -62 hlineto
            -39 -51 rlineto
            return
          </CharString>
          <CharString index="86">
            251 609 rmoveto
            -164 -64 -110 -200 -86 12 -69 26 -51 hvcurveto
            -72 -93 rlineto
            62 hlineto
            39 50 rlineto
            return
          </CharString>
          <CharString index="87">
            rmoveto
            -20 -17 4 8 -16 hvcurveto
            174 259 rlineto
            5 -23 3 -26 -28 vvcurveto
            -114 -43 -80 -86 vhcurveto
            endchar
          </CharString>
          <CharString index="88">
            5 28 2 38 40 vvcurveto
            return
          </CharString>
          <CharString index="89">
            10 -29 callsubr
            return
          </CharString>
          <CharString index="90">
            -33 3 -33 5 -27 vhcurveto
            return
          </CharString>
          <CharString index="91">
            163 225 232 return
          </CharString>
          <CharString index="92">
            108 176 -2 -2 74 hvcurveto
            -389 668 rmoveto
            32 hlineto
            -92 1 -117 -113 vvcurveto
            -107 hlineto
            return
          </CharString>
          <CharString index="93">
            vvcurveto
            -206 -1 -122 -4 -117 vhcurveto
            166 hlineto
            return
          </CharString>
          <CharString index="94">
            19 46 3 5 33 return
          </CharString>
          <CharString index="95">
            -21 336 -20 hstemhm
            11 196 -127 127 46 196 -127 127 hintmask 11011000
            12 return
          </CharString>
          <CharString index="96">
            -25 callgsubr
            89 return
          </CharString>
          <CharString index="97">
            -11 224 -192 -21 return
          </CharString>
          <CharString index="98">
            -67 -66 39 -67 hhcurveto
            -40 -40 -6 -23 -40 hvcurveto
            return
          </CharString>
          <CharString index="99">
            -80 0 213 184 201 return
          </CharString>
          <CharString index="100">
            -192 139 return
          </CharString>
          <CharString index="101">
            -21 32 -21 return
          </CharString>
          <CharString index="102">
            -8 132 -103 -50 callsubr
            68 -20 41 -50 callgsubr
            return
          </CharString>
          <CharString index="103">
            256 -11 181 -181 229 97 107 29 158 -108 108 return
          </CharString>
          <CharString index="104">
            rmoveto
            30 31 -26 -53 5 hvcurveto
            -131 hlineto
            58 8 29 21 28 hhcurveto
            endchar
          </CharString>
          <CharString index="105">
            rmoveto
            94 hlineto
            22 300 rlineto
            -138 hlineto
            return
          </CharString>
          <CharString index="106">
            140 171 191 return
          </CharString>
          <CharString index="107">
            193 18 -21 24 -35 callsubr
            41 149 126 159 return
          </CharString>
          <CharString index="108">
            -25 callgsubr
            -165 244 10 -50 callgsubr
            return
          </CharString>
          <CharString index="109">
            21 -48 callsubr
            return
          </CharString>
          <CharString index="110">
            632 -10 callsubr
            639 179 -154 166 return
          </CharString>
          <CharString index="111">
            -321 21 -21 return
          </CharString>
          <CharString index="112">
            196 399 rlineto
            -186 hlineto
            -178 -383 rlineto
            -4 hlineto
            return
          </CharString>
          <CharString index="113">
            hstem
            26 147 vstem
            -37 callsubr
            return
          </CharString>
          <CharString index="114">
            -60 -11 -16 callgsubr
            return
          </CharString>
          <CharString index="115">
            -23 -11 235 -203 -21 411 198 -11 -20 return
          </CharString>
          <CharString index="116">
            hmoveto
            386 818 rlineto
            -92 hlineto
            -386 -818 rlineto
            return
          </CharString>
          <CharString index="117">
            -160 -21 191 -21 469 return
          </CharString>
          <CharString index="118">
            50 -33 51 -73 -57 -49 -51 -59 -46 38 -59 67 return
          </CharString>
          <CharString index="119">
            244 -212 -48 callsubr
            -32 callsubr
            return
          </CharString>
          <CharString index="120">
            hlineto
            27 1 26 26 27 -1 26 28 vvcurveto
            endchar
          </CharString>
          <CharString index="121">
            155 -155 168 return
          </CharString>
          <CharString index="122">
            -29 callgsubr
            vstem
            return
          </CharString>
          <CharString index="123">
            69 21 -13 callgsubr
            return
          </CharString>
          <CharString index="124">
            64 -18 callsubr
            return
          </CharString>
          <CharString index="125">
            268 -20 -39 callgsubr
            return
          </CharString>
          <CharString index="126">
            125 105 75 101 106 hstem
            return
          </CharString>
          <CharString index="127">
            16 -236 -168 16 rlineto
            -132 vlineto
            return
          </CharString>
        <CharString name=".notdef">
          106 -205 85 1079 86 hstem
          30 92 382 92 vstem
          30 1045 rmoveto
          -1250 566 1250 vlineto
          -92 -86 rmoveto
          -1079 -382 1079 vlineto
          endchar
        </CharString>
        <CharString name="A">
          -56 callgsubr
          -77 callgsubr
          endchar
        </CharString>
        <CharString name="AE">
          0 callsubr
          hstemhm
          341 160 hintmask 10111100
          -27 callgsubr
          hintmask 01111100
          -9 callgsubr
          hintmask 10111100
          -15 callsubr
          endchar
        </CharString>
        <CharString name="AEacute">
          0 callsubr
          31 191 hstemhm
          341 160 hintmask 10111110
          -27 callgsubr
          hintmask 01111110
          -9 callgsubr
          hintmask 10111110
          -15 callsubr
          130 506 -94 callgsubr
        </CharString>
        <CharString name="Aacute">
          -56 callgsubr
          51 191 -77 callgsubr
          -13 506 -94 callgsubr
        </CharString>
        <CharString name="Abreve">
          -56 callgsubr
          74 -23 callgsubr
          121 69 154 69 hintmask 11101110
          -96 callsubr
          127 673 rmoveto
          hintmask 11110110
          -51 callsubr
          hintmask 11101110
          -90 callgsubr
        </CharString>
        <CharString name="Acircumflex">
          -56 callgsubr
          247 -20 -77 callgsubr
          -121 589 -96 callgsubr
        </CharString>
        <CharString name="Adieresis">
          -56 callgsubr
          68 146 hstem
          101 15 callsubr
          -96 callsubr
          -116 596 -102 callgsubr
        </CharString>
        <CharString name="Agrave">
          -56 callgsubr
          51 191 -77 callgsubr
          40 697 -81 callsubr
        </CharString>
        <CharString name="Amacron">
          -56 callgsubr
          103 94 -77 callgsubr
          -107 652 -48 callgsubr
        </CharString>
        <CharString name="Aogonek">
          14 -205 73 153 -43 callgsubr
          hstem
          340 90 vstem
          525 -76 callsubr
          27 28 47 40 37 hvcurveto
          40 hlineto
          -147 818 rlineto
          -247 -41 callsubr
          170 hlineto
          24 164 rlineto
          154 hlineto
          25 -164 rlineto
          44 hlineto
          -47 -46 -26 -51 -38 -73 callsubr
          -265 856 rmoveto
          50 -330 rlineto
          -100 hlineto
          endchar
        </CharString>
        <CharString name="Aring">
          -56 callgsubr
          51 48 101 46 hstem
          164 51 102 51 vstem
          -96 callsubr
          50 554 rmoveto
          -79 callgsubr
          endchar
        </CharString>
        <CharString name="Aringacute">
          -56 callgsubr
          70 42 19 116 hstem
          168 47 102 47 vstem
          267 910 rmoveto
          -63 -36 -43 -49 hvcurveto
          -24 -41 callsubr
          170 hlineto
          24 164 rlineto
          154 hlineto
          25 -164 rlineto
          169 hlineto
          -147 818 rlineto
          -27 hlineto
          49 -34 43 -63 vhcurveto
          -237 vmoveto
          50 -330 rlineto
          -100 hlineto
          15 586 rmoveto
          75 hlineto
          54 116 rlineto
          -107 hlineto
          13 -278 rmoveto
          -30 -22 21 30 30 22 20 30 30 20 -20 -30 -30 -20 -21 -30 hvcurveto
          endchar
        </CharString>
        <CharString name="Atilde">
          -56 callgsubr
          62 -56 callsubr
          hintmask 11101000
          -96 callsubr
          -132 536 -64 callgsubr
          hintmask 11110000
          -91 callsubr
          hintmask 11100100
          -79 callsubr
        </CharString>
        <CharString name="B">
          64 10 -21 428 134 135 144 hstemhm
          31 154 160 178 -141 195 hintmask 11111000
          185 680 rmoveto
          4 10 20 2 22 hhcurveto
          70 38 -22 -40 -44 -47 -29 -71 -13 -10 0 2 -19 hvcurveto
          -157 -553 rmoveto
          -8 67 63 -3 49 hhcurveto
          hintmask 11110100
          254 116 91 193 136 -58 74 -129 24 hvcurveto
          hintmask 11111000
          79 13 54 66 83 vvcurveto
          108 -92 53 -186 -62 -85 -5 -10 -74 vhcurveto
          -62 callsubr
          157 413 rmoveto
          3 31 19 1 17 hhcurveto
          hintmask 11110100
          81 49 -27 -51 -49 -45 -28 -83 -25 -31 3 4 -13 hvcurveto
          endchar
        </CharString>
        <CharString name="C">
          -4 -18 callsubr
          hstem
          10 223 -101 callsubr
          endchar
        </CharString>
        <CharString name="CR">
          -304 endchar
        </CharString>
        <CharString name="Cacute">
          -4 -18 callsubr
          19 191 hstem
          10 223 -101 callsubr
          -87 19 -94 callgsubr
        </CharString>
        <CharString name="Ccaron">
          -4 -18 callsubr
          215 -20 hstem
          10 223 -101 callsubr
          -24 33 -90 callsubr
        </CharString>
        <CharString name="Ccedilla">
          -4 -205 151 64 -29 callsubr
          hstem
          10 223 -101 callsubr
          -91 -885 -62 callgsubr
        </CharString>
        <CharString name="Ccircumflex">
          -4 -18 callsubr
          215 -20 hstem
          10 223 -101 callsubr
          -195 102 -96 callgsubr
        </CharString>
        <CharString name="Cdotaccent">
          -4 -18 callsubr
          24 172 hstem
          10 223 44 172 -101 callsubr
          -110 109 -85 callsubr
        </CharString>
        <CharString name="D">
          105 10 -21 675 166 hstem
          -21 callgsubr
          vstem
          24 815 rmoveto
          5 -125 2 -167 -173 vvcurveto
          -122 -1 -104 -2 -124 vhcurveto
          -103 callsubr
          endchar
        </CharString>
        <CharString name="Dcaron">
          105 10 -21 675 166 215 -20 hstem
          -21 callgsubr
          vstem
          24 815 rmoveto
          5 -125 2 -167 -173 vvcurveto
          -122 -1 -104 -2 -124 vhcurveto
          -103 callsubr
          41 199 -90 callsubr
        </CharString>
        <CharString name="Dcroat">
          -80 callsubr
        </CharString>
        <CharString name="Ddotbelow">
          105 -40 callgsubr
          62 -21 675 166 hstemhm
          31 155 -28 150 85 222 hintmask 11110100
          24 815 rmoveto
          5 -125 2 -167 -173 vvcurveto
          -122 -1 -104 -2 -124 vhcurveto
          -103 callsubr
          15 -716 rmoveto
          hintmask 11101100
          -95 callgsubr
        </CharString>
        <CharString name="E">
          -75 callgsubr
          -6 callgsubr
          hintmask 10111000
          -105 callsubr
          hintmask 01111000
          -65 callgsubr
          hintmask 10111000
          -60 callgsubr
          endchar
        </CharString>
        <CharString name="Eacute">
          -75 callgsubr
          28 191 -6 callgsubr
          hintmask 10111100
          -105 callsubr
          hintmask 01111100
          -65 callgsubr
          hintmask 10111100
          -60 callgsubr
          -237 852 -94 callgsubr
        </CharString>
        <CharString name="Ebreve">
          -75 callgsubr
          51 -23 callgsubr
          30 160 -112 69 154 69 hintmask 1011101010000000
          -105 callsubr
          hintmask 0111101010000000
          -65 callgsubr
          hintmask 1011011010000000
          -60 callgsubr
          -97 1019 rmoveto
          hintmask 1011101010000000
          -51 callsubr
          hintmask 1011010110000000
          -90 callgsubr
        </CharString>
        <CharString name="Ecaron">
          -75 callgsubr
          224 -20 -6 callgsubr
          hintmask 10111100
          -105 callsubr
          hintmask 01111100
          -65 callgsubr
          hintmask 10111100
          -60 callgsubr
          -174 866 -90 callsubr
        </CharString>
        <CharString name="Ecircumflex">
          -75 callgsubr
          224 -20 -6 callgsubr
          hintmask 10111100
          -105 callsubr
          hintmask 01111100
          -65 callgsubr
          hintmask 10111100
          -60 callgsubr
          -345 935 -96 callgsubr
        </CharString>
        <CharString name="Edieresis">
          -75 callgsubr
          45 146 -6 callgsubr
          -132 132 57 151 hintmask 10111101
          -105 callsubr
          hintmask 01111101
          -65 callgsubr
          hintmask 10111011
          -60 callgsubr
          -340 942 -102 callgsubr
        </CharString>
        <CharString name="Edotaccent">
          -75 callgsubr
          33 172 -6 callgsubr
          -52 172 hintmask 10111100
          -105 callsubr
          hintmask 01111100
          -65 callgsubr
          hintmask 10111010
          -60 callgsubr
          -260 942 -85 callsubr
        </CharString>
        <CharString name="Edotbelow">
          -105 -205 153 73 -67 callsubr
          -6 callgsubr
          -39 150 hintmask 11111000
          -105 callsubr
          -65 callgsubr
          -60 callgsubr
          -172 -49 rmoveto
          hintmask 11110100
          -95 callgsubr
        </CharString>
        <CharString name="Egrave">
          -75 callgsubr
          28 191 -6 callgsubr
          hintmask 10111100
          -105 callsubr
          hintmask 01111100
          -65 callgsubr
          hintmask 10111100
          -60 callgsubr
          -184 1043 -81 callsubr
        </CharString>
        <CharString name="Emacron">
          -75 callgsubr
          80 94 -6 callgsubr
          hintmask 10111100
          -105 callsubr
          hintmask 01111100
          -65 callgsubr
          hintmask 10111100
          -60 callgsubr
          -331 998 -48 callgsubr
        </CharString>
        <CharString name="Eng">
          76 -193 124 90 -37 callgsubr
          hstem
          31 133 262 141 vstem
          569 -36 callsubr
          -143 -478 hlineto
          -230 478 rlineto
          -169 hlineto
          3 -136 1 -137 -136 vvcurveto
          -136 -1 -137 -3 -136 vhcurveto
          137 489 hlineto
          255 -488 rlineto
          -50 -27 -20 -46 -32 -48 6 11 -28 vhcurveto
          -4 -29 -1 -20 -18 vvcurveto
          -20 1 -11 4 -27 vhcurveto
          -12 62 39 -4 30 hhcurveto
          107 67 57 110 15 hvcurveto
          3 26 4 55 1 192 rrcurveto
          endchar
        </CharString>
        <CharString name="Eogonek">
          -105 -205 73 152 -21 22 -67 callsubr
          -6 callgsubr
          -64 90 hintmask 11011010
          311 -76 callsubr
          27 28 46 40 37 hvcurveto
          114 hlineto
          150 0 54 -4 62 vhcurveto
          hintmask 10111100
          -204 112 175 149 -175 116 201 hlineto
          2 39 2 58 33 22 -1 10 17 vvcurveto
          -3 -108 -153 -1 -105 hhcurveto
          -53 2 -220 -202 vvcurveto
          -65 callgsubr
          171 hlineto
          hintmask 11011010
          -46 -47 -27 -50 -38 -73 callsubr
          endchar
        </CharString>
        <CharString name="Eth">
          -80 callsubr
        </CharString>
        <CharString name="Etilde">
          -75 callgsubr
          39 -56 callsubr
          30 160 hintmask 10111001
          -105 callsubr
          hintmask 01111001
          -65 callgsubr
          hintmask 10110101
          -60 callgsubr
          -356 882 -64 callgsubr
          hintmask 10111001
          -91 callsubr
          hintmask 10110011
          -79 callsubr
        </CharString>
        <CharString name="Euro">
          57 -11 161 112 109 72 108 118 161 hstem
          507 443 rmoveto
          108 -240 vlineto
          68 22 46 50 94 hhcurveto
          31 36 -5 -12 39 hvcurveto
          24 151 rlineto
          18 -57 -53 9 -49 hhcurveto
          -154 -106 -89 -190 -32 hvcurveto
          -90 -108 81 hlineto
          -1 -12 0 -12 -12 vvcurveto
          -12 0 -12 1 -12 vhcurveto
          -81 -109 93 hlineto
          -187 35 104 -86 150 hhcurveto
          49 53 9 18 57 hvcurveto
          -24 151 rlineto
          -11 -39 -36 -6 -31 hhcurveto
          -89 -46 48 64 -24 hvcurveto
          237 109 -257 hlineto
          -1 12 0 12 12 vvcurveto
          12 0 12 1 12 vhcurveto
          endchar
        </CharString>
        <CharString name="F">
          -116 21 -21 323 170 150 179 hstem
          30 160 vstem
          195 hmoveto
          -3 54 -1 136 -1 133 rrcurveto
          167 170 -167 150 201 hlineto
          3 41 1 42 39 vvcurveto
          18 0 19 -1 20 vhcurveto
          -3 -108 -153 -2 -105 hhcurveto
          2 -69 0 -182 -176 vvcurveto
          -176 0 -170 -2 -44 vhcurveto
          endchar
        </CharString>
        <CharString name="G">
          17 callsubr
          hstem
          10 223 204 128 vstem
          -93 callsubr
          endchar
        </CharString>
        <CharString name="Gbreve">
          17 callsubr
          42 -23 callgsubr
          10 223 -19 69 154 69 -69 128 hintmask 11011001
          -93 callsubr
          -128 561 rmoveto
          hintmask 11101010
          -51 callsubr
          hintmask 11010110
          -90 callgsubr
        </CharString>
        <CharString name="Gcircumflex">
          17 callsubr
          215 -20 hstem
          10 223 204 128 vstem
          -93 callsubr
          -376 477 -96 callgsubr
        </CharString>
        <CharString name="Gcommaaccent">
          64 -22 callgsubr
          65 -29 callsubr
          hstem
          10 223 204 128 vstem
          -93 callsubr
          -240 -510 -78 callgsubr
        </CharString>
        <CharString name="Gdotaccent">
          17 callsubr
          24 172 hstemhm
          10 223 41 172 -9 128 hintmask 11110100
          -93 callsubr
          hintmask 11111000
          -291 484 -85 callsubr
        </CharString>
        <CharString name="H">
          9 21 -21 275 247 296 -73 callgsubr
          endchar
        </CharString>
        <CharString name="Hbar">
          19 21 -21 275 247 125 82 -82 171 hstemhm
          35 161 146 161 hintmask 11011100
          341 -36 callsubr
          hintmask 11101100
          -89 -142 vlineto
          hintmask 11011100
          1 28 0 30 2 31 rrcurveto
          -168 hlineto
          hintmask 11101100
          -89 -38 -82 38 vlineto
          -54 1 -61 -87 -14 callsubr
          -1 108 -1 89 78 vvcurveto
          148 hlineto
          -1 -111 -2 -84 -2 -80 rrcurveto
          166 hlineto
          -1 149 -1 113 98 vvcurveto
          106 0 88 3 93 vhcurveto
          40 82 -38 hlineto
          hintmask 11011100
          28 1 30 2 31 vhcurveto
          -167 -296 rmoveto
          -148 hlineto
          42 1 41 1 42 vhcurveto
          145 hlineto
          -37 1 -40 -48 vvcurveto
          endchar
        </CharString>
        <CharString name="Hcircumflex">
          9 21 -21 275 247 296 -20 247 -73 callgsubr
          -412 114 -96 callgsubr
        </CharString>
        <CharString name="Hdotbelow">
          9 -18 callgsubr
          275 247 296 -20 hstemhm
          31 168 -9 150 -2 159 hintmask 11111010
          337 -36 callsubr
          -103 1 -71 -122 vvcurveto
          hintmask 11110100
          -148 hlineto
          hintmask 11111010
          1 96 3 90 5 110 rrcurveto
          -169 hlineto
          -124 1 -67 -182 -14 callsubr
          hintmask 11110100
          -1 108 -1 89 78 vvcurveto
          hintmask 11111010
          148 hlineto
          -1 -111 -2 -84 -2 -80 rrcurveto
          166 hlineto
          -1 149 -1 113 98 vvcurveto
          168 2 121 7 169 vhcurveto
          -241 -870 rmoveto
          hintmask 11110100
          -95 callgsubr
        </CharString>
        <CharString name="I">
          -44 callsubr
          hstem
          99 157 vstem
          -106 callgsubr
          -61 callgsubr
          endchar
        </CharString>
        <CharString name="IJ">
          224 10 -6 callsubr
          637 181 hstemhm
          99 157 305 157 hintmask 01111000
          -106 callgsubr
          -61 callgsubr
          619 535 rmoveto
          -77 callsubr
          hintmask 10111000
          -70 callsubr
          endchar
        </CharString>
        <CharString name="Iacute">
          -44 callsubr
          31 191 hstem
          99 157 vstem
          -106 callgsubr
          -61 callgsubr
          17 566 -94 callgsubr
        </CharString>
        <CharString name="Ibreve">
          -44 callsubr
          54 -23 callgsubr
          33 69 -3 157 0 77 hintmask 11101010
          -106 callgsubr
          hintmask 11010100
          -61 callgsubr
          157 733 rmoveto
          hintmask 11101010
          -51 callsubr
          hintmask 11011010
          -90 callgsubr
        </CharString>
        <CharString name="Icircumflex">
          -44 callsubr
          227 -20 hstem
          99 157 vstem
          -106 callgsubr
          -61 callgsubr
          -91 649 -96 callgsubr
        </CharString>
        <CharString name="Idieresis">
          -44 callsubr
          48 146 hstemhm
          21 135 -57 157 -54 143 hintmask 11110100
          24 283 rmoveto
          -1 -48 -2 -46 -48 vvcurveto
          -47 2 -47 1 -47 vhcurveto
          308 hlineto
          1 47 0 47 47 vvcurveto
          48 0 46 -1 48 vhcurveto
          hintmask 11101000
          -76 77 hlineto
          106 0 82 3 89 vhcurveto
          73 hlineto
          1 30 0 30 30 vvcurveto
          31 0 30 -1 30 vhcurveto
          -308 hlineto
          hintmask 11110100
          -1 -29 -2 -31 -31 vvcurveto
          -30 2 -30 1 -30 vhcurveto
          74 hlineto
          hintmask 11101000
          -61 callgsubr
          -86 656 rmoveto
          -54 43 -19 32 vhcurveto
          hintmask 11110100
          39 29 31 42 41 -27 32 -42 -36 -38 -21 -52 hvcurveto
          189 1 rmoveto
          -55 43 -19 32 39 29 31 42 41 -27 32 -43 -35 -38 -21 -51 vhcurveto
          endchar
        </CharString>
        <CharString name="Idotaccent">
          -44 callsubr
          36 172 hstem
          99 157 vstem
          -106 callgsubr
          -61 callgsubr
          -6 656 -85 callsubr
        </CharString>
        <CharString name="Idotbelow">
          -165 -18 callgsubr
          637 181 hstem
          99 157 vstem
          -106 callgsubr
          -61 callgsubr
          80 -335 rmoveto
          -95 callgsubr
        </CharString>
        <CharString name="Igrave">
          -44 callsubr
          31 191 hstem
          99 157 vstem
          -106 callgsubr
          -61 callgsubr
          70 757 -81 callsubr
        </CharString>
        <CharString name="Imacron">
          -44 callsubr
          83 94 hstem
          99 157 vstem
          -106 callgsubr
          -61 callgsubr
          -77 712 -48 callgsubr
        </CharString>
        <CharString name="Iogonek">
          -165 -205 73 153 -21 637 181 hstemhm
          79 90 -70 157 hintmask 11110000
          264 -76 callsubr
          27 29 47 40 37 hvcurveto
          94 hlineto
          1 47 0 47 47 vvcurveto
          48 0 46 -1 48 vhcurveto
          hintmask 11101000
          -100 callsubr
          -50 1 -57 -85 vvcurveto
          -162 -75 vlineto
          -1 -48 -2 -46 -48 vvcurveto
          -47 2 -47 1 -47 vhcurveto
          129 hlineto
          hintmask 11110000
          -47 -47 -27 -50 -38 -73 callsubr
          endchar
        </CharString>
        <CharString name="Itilde">
          -44 callsubr
          42 -56 callsubr
          99 157 hintmask 11010100
          -106 callgsubr
          -61 callgsubr
          -102 596 -64 callgsubr
          hintmask 11100100
          -91 callsubr
          hintmask 11001100
          -79 callsubr
        </CharString>
        <CharString name="J">
          -142 10 -21 658 171 -63 callsubr
          endchar
        </CharString>
        <CharString name="Jcircumflex">
          -142 10 -21 658 171 227 -20 -63 callsubr
          -322 504 -96 callgsubr
        </CharString>
        <CharString name="K">
          37 -55 callgsubr
          21 -20 hstemhm
          31 171 hintmask 11010000
          -47 callsubr
          hintmask 10110000
          5 callsubr
          hintmask 11010000
          153 2 68 7 161 vhcurveto
          endchar
        </CharString>
        <CharString name="Kcommaaccent">
          37 -22 callgsubr
          76 -37 callgsubr
          21 -20 hstemhm
          31 171 hintmask 11101000
          -47 callsubr
          hintmask 11011000
          5 callsubr
          hintmask 11101000
          153 2 68 7 161 vhcurveto
          5 -873 -78 callgsubr
        </CharString>
        <CharString name="L">
          -154 -55 callgsubr
          hstem
          32 168 vstem
          -89 callsubr
          endchar
        </CharString>
        <CharString name="Lacute">
          -154 -55 callgsubr
          51 191 hstem
          32 168 vstem
          -89 callsubr
          -149 31 -94 callgsubr
        </CharString>
        <CharString name="Lcaron">
          -149 21 -21 640 201 -23 -20 hstemhm
          32 168 hintmask 10110000
          -89 callsubr
          hintmask 11010000
          63 -178 -54 callsubr
        </CharString>
        <CharString name="Lcommaaccent">
          -154 -22 callgsubr
          76 -37 callgsubr
          hstem
          32 168 vstem
          -89 callsubr
          -74 -873 -78 callgsubr
        </CharString>
        <CharString name="Ldot">
          -78 21 -21 349 215 254 -20 hstem
          32 168 34 212 vstem
          -89 callsubr
          141 -254 rmoveto
          -83 callgsubr
          endchar
        </CharString>
        <CharString name="Lslash">
          -152 -55 callgsubr
          hstemhm
          4 190 -160 160 hintmask 11010000
          33 -36 callsubr
          1 -76 0 -82 -188 vvcurveto
          hintmask 11100000
          -30 -10 rlineto
          -112 vlineto
          29 10 -1 -121 -2 -124 -2 -115 rlinecurve
          323 hlineto
          3 46 1 45 44 vvcurveto
          43 -1 42 -3 44 vhcurveto
          -157 -6 rlineto
          156 vlineto
          106 36 rlineto
          112 vlineto
          -104 -35 rlineto
          110 1 111 4 70 vhcurveto
          endchar
        </CharString>
        <CharString name="M">
          176 -55 callgsubr
          hstem
          31 144 338 152 vstem
          508 hmoveto
          160 hlineto
          -2 136 -1 137 136 vvcurveto
          136 1 137 2 136 vhcurveto
          -202 hlineto
          -119 -469 -106 469 rlineto
          -214 hlineto
          3 -136 1 -137 -136 vvcurveto
          -136 -1 -137 -3 -136 vhcurveto
          158 hlineto
          -3 157 -6 169 -1 162 121 -453 rcurveline
          93 hlineto
          129 466 rlineto
          endchar
        </CharString>
        <CharString name="N">
          77 -55 callgsubr
          hstem
          18 callgsubr
          vstem
          -103 callgsubr
          endchar
        </CharString>
        <CharString name="NULL">
          -520 endchar
        </CharString>
        <CharString name="Nacute">
          77 -55 callgsubr
          51 191 hstem
          18 callgsubr
          vstem
          -103 callgsubr
          -189 31 -94 callgsubr
        </CharString>
        <CharString name="Ncaron">
          77 -55 callgsubr
          247 -20 hstem
          18 callgsubr
          vstem
          -103 callgsubr
          -126 45 -90 callsubr
        </CharString>
        <CharString name="Ncommaaccent">
          77 -22 callgsubr
          76 -37 callgsubr
          hstem
          18 callgsubr
          vstem
          -103 callgsubr
          -213 -873 -78 callgsubr
        </CharString>
        <CharString name="Ndotaccent">
          77 -55 callgsubr
          56 172 hstem
          31 133 50 172 40 140 vstem
          -103 callgsubr
          -212 121 -85 callsubr
        </CharString>
        <CharString name="Ntilde">
          77 -55 callgsubr
          62 100 -42 42 -42 99 8 callgsubr
          hintmask 11010110
          -103 callgsubr
          -308 61 -64 callgsubr
          hintmask 11100110
          -91 callsubr
          hintmask 11001110
          -79 callsubr
        </CharString>
        <CharString name="O">
          -42 callsubr
          hstem
          -15 callgsubr
          162 vstem
          -105 callgsubr
          endchar
        </CharString>
        <CharString name="OE">
          290 1 246 -237 -21 395 149 108 189 -171 171 hstemhm
          -15 callgsubr
          163 hintmask 01101110
          794 -3 rmoveto
          150 0 56 -4 62 vhcurveto
          -194 119 165 149 -165 126 191 hlineto
          2 39 2 42 33 22 -1 10 17 vvcurveto
          -3 -108 -143 -2 -105 hhcurveto
          -40 vlineto
          35 -38 -45 18 -57 hhcurveto
          -190 -91 -142 -272 -273 87 -154 194 60 45 23 44 36 hvcurveto
          hintmask 10110110
          -22 -1 -20 -13 vvcurveto
          108 178 -2 -2 74 hvcurveto
          -490 250 -14 callgsubr
        </CharString>
        <CharString name="Oacute">
          -42 callsubr
          19 191 hstem
          -15 callgsubr
          162 vstem
          -105 callgsubr
          -63 602 -94 callgsubr
        </CharString>
        <CharString name="Obreve">
          -42 callsubr
          42 -23 callgsubr
          13 163 -18 69 154 69 -17 162 hintmask 11011001
          -105 callgsubr
          hintmask 11011010
          77 769 rmoveto
          hintmask 11101010
          -51 callsubr
          hintmask 11010110
          -90 callgsubr
        </CharString>
        <CharString name="Ocircumflex">
          -42 callsubr
          215 -20 hstem
          -15 callgsubr
          162 vstem
          -105 callgsubr
          -171 685 -96 callgsubr
        </CharString>
        <CharString name="Odieresis">
          -42 callsubr
          36 146 hstemhm
          13 163 -38 -29 callgsubr
          -37 162 hintmask 11110010
          -105 callgsubr
          hintmask 11101100
          -166 692 -102 callgsubr
        </CharString>
        <CharString name="Odotbelow">
          88 -40 callgsubr
          62 -28 callgsubr
          hstem
          13 163 54 150 53 162 vstem
          -105 callgsubr
          1 -299 rmoveto
          -95 callgsubr
        </CharString>
        <CharString name="Ograve">
          -42 callsubr
          19 191 hstem
          -15 callgsubr
          162 vstem
          -105 callgsubr
          -10 793 -81 callsubr
        </CharString>
        <CharString name="Ohungarumlaut">
          -42 callsubr
          19 191 hstem
          -15 callgsubr
          162 vstem
          -105 callgsubr
          -125 602 -72 callgsubr
        </CharString>
        <CharString name="Omacron">
          -42 callsubr
          71 94 hstem
          -15 callgsubr
          162 vstem
          -105 callgsubr
          -157 748 -48 callgsubr
        </CharString>
        <CharString name="Oogonek">
          88 -205 73 773 189 hstem
          13 163 29 90 138 162 vstem
          390 -76 callsubr
          26 25 43 36 35 hvcurveto
          166 25 73 150 248 vvcurveto
          269 -92 145 -199 -197 -94 -142 -272 -257 79 -152 177 -16 vhcurveto
          -41 -44 -23 -46 -36 -73 callsubr
          -93 430 -14 callgsubr
        </CharString>
        <CharString name="Oslash">
          17 callgsubr
          hstemhm
          18 163 257 162 hintmask 01101100
          -23 callsubr
          hintmask 10011100
          -25 callsubr
          hintmask 01101100
          -31 callgsubr
          128 -194 -20 callsubr
        </CharString>
        <CharString name="Oslashacute">
          17 callgsubr
          51 191 hstemhm
          18 163 257 162 hintmask 01101110
          -23 callsubr
          hintmask 10011110
          -25 callsubr
          hintmask 01101110
          -31 callgsubr
          65 408 rmoveto
          91 -28 callsubr
          191 rlineto
          -146 hlineto
          -10 -793 -20 callsubr
        </CharString>
        <CharString name="Otilde">
          -42 callsubr
          30 -56 callsubr
          -15 callgsubr
          162 hintmask 11010110
          -105 callgsubr
          -182 632 -64 callgsubr
          hintmask 11100110
          -91 callsubr
          hintmask 11001110
          -79 callsubr
        </CharString>
        <CharString name="P">
          38 21 -21 282 170 196 182 hstem
          32 166 159 196 vstem
          198 642 rmoveto
          4 19 18 2 20 hhcurveto
          53 49 -18 -81 -76 -45 -21 -51 -16 -23 2 6 -24 hvcurveto
          5 -460 rmoveto
          -6 95 -1 96 95 vvcurveto
          -3 20 15 -1 22 hhcurveto
          178 122 77 203 220 -147 48 -183 -64 -67 -6 -6 -65 hvcurveto
          3 -146 2 -142 -161 vvcurveto
          -112 -1 -131 -4 -126 vhcurveto
          endchar
        </CharString>
        <CharString name="Q">
          88 -160 180 -10 -28 callgsubr
          hstemhm
          -15 callgsubr
          162 hintmask 01111000
          304 830 rmoveto
          -197 -94 -142 -272 -273 90 -154 201 hvcurveto
          5 hlineto
          hintmask 10111000
          40 -78 69 -67 102 -4 57 180 rcurveline
          -61 -42 8 15 -40 hvcurveto
          104 26 57 115 232 vvcurveto
          269 -92 145 -199 vhcurveto
          -583 vmoveto
          -84 -44 80 114 112 44 88 84 86 43 -85 -115 -114 -43 -80 -86 hvcurveto
          endchar
        </CharString>
        <CharString name="R">
          16 callsubr
          hstem
          32 168 175 -101 callgsubr
          endchar
        </CharString>
        <CharString name="Racute">
          16 callsubr
          19 191 hstem
          32 168 175 -101 callgsubr
          24 395 -94 callgsubr
        </CharString>
        <CharString name="Rcaron">
          16 callsubr
          215 -20 hstem
          32 168 175 -101 callgsubr
          87 409 -90 callsubr
        </CharString>
        <CharString name="Rcommaaccent">
          69 -22 callgsubr
          76 -13 callgsubr
          hstem
          32 168 175 -101 callgsubr
          42 -509 -78 callgsubr
        </CharString>
        <CharString name="Rdotbelow">
          69 -205 153 73 -13 callgsubr
          hstem
          32 168 21 150 4 -101 callgsubr
          103 -506 rmoveto
          -95 callgsubr
        </CharString>
        <CharString name="S">
          7 callsubr
          hstem
          17 218 25 195 vstem
          -106 callsubr
          endchar
        </CharString>
        <CharString name="Sacute">
          7 callsubr
          19 191 hstem
          17 218 25 195 vstem
          -106 callsubr
          194 234 -94 callgsubr
        </CharString>
        <CharString name="Scaron">
          7 callsubr
          215 -20 hstem
          17 218 25 195 vstem
          -106 callsubr
          257 248 -90 callsubr
        </CharString>
        <CharString name="Schwa">
          96 -11 213 129 107 172 221 hstem
          13 182 199 212 vstem
          13 295 rmoveto
          -187 105 -119 159 194 135 178 246 248 -137 170 -210 -65 -96 -16 -22 -58 vhcurveto
          -3 -20 -1 -23 -22 vvcurveto
          -53 6 -48 10 -40 vhcurveto
          15 50 55 8 51 hhcurveto
          125 53 -48 -124 8 hvcurveto
          -365 hlineto
          -10 -50 -6 -49 -44 vvcurveto
          270 -93 rmoveto
          -60 -28 42 87 hvcurveto
          195 hlineto
          -86 -11 -36 -43 -60 hhcurveto
          endchar
        </CharString>
        <CharString name="Scircumflex">
          7 callsubr
          215 -20 hstem
          17 218 25 195 vstem
          -106 callsubr
          86 317 -96 callgsubr
        </CharString>
        <CharString name="Sdotbelow">
          -60 -40 callgsubr
          41 -16 callgsubr
          hstemhm
          17 218 -94 150 -31 195 hintmask 11110100
          -106 callsubr
          199 -667 rmoveto
          hintmask 11101000
          -95 callgsubr
        </CharString>
        <CharString name="T">
          -101 21 -21 633 185 hstem
          127 162 vstem
          -85 callgsubr
          endchar
        </CharString>
        <CharString name="Tbar">
          -89 21 -21 397 92 144 185 hstem
          133 163 vstem
          414 -36 callsubr
          -397 -185 115 -144 -105 -92 106 hlineto
          -1 -173 -2 -119 -2 -105 rrcurveto
          168 397 108 92 -108 144 118 hlineto
          endchar
        </CharString>
        <CharString name="Tcaron">
          -101 21 -21 633 185 227 -20 hstem
          127 162 vstem
          -85 callgsubr
          -194 230 -90 callsubr
        </CharString>
        <CharString name="Tdotbelow">
          -101 -18 callgsubr
          633 185 hstemhm
          127 149 -149 162 hintmask 11101000
          -85 callgsubr
          -207 -685 rmoveto
          -48 -27 -38 -39 -38 27 -38 48 hvcurveto
          hintmask 11110000
          48 27 38 38 39 -27 38 -48 hvcurveto
          endchar
        </CharString>
        <CharString name="Thorn">
          42 21 -21 135 164 196 186 137 -20 hstem
          28 158 159 209 vstem
          186 490 rmoveto
          3 20 18 2 19 hhcurveto
          54 48 -18 -80 -77 -44 -21 -51 -16 -24 2 6 -24 hvcurveto
          -158 511 rmoveto
          3 -248 1 -68 -79 -82 -4 -49 -292 vvcurveto
          169 hlineto
          -6 94 -1 -50 91 vvcurveto
          190 174 43 222 255 -179 26 -185 hvcurveto
          21 2 72 5 44 vhcurveto
          endchar
        </CharString>
        <CharString name="U">
          -47 callgsubr
          21 -20 -66 callsubr
          176 190 -178 178 hintmask 11010100
          386 -36 callsubr
          hintmask 11010010
          -84 callgsubr
          hintmask 11001100
          -72 callsubr
          hintmask 10110100
          -94 callsubr
          endchar
        </CharString>
        <CharString name="Uacute">
          -47 callgsubr
          51 191 -99 callgsubr
          -330 30 -94 callgsubr
        </CharString>
        <CharString name="Ubreve">
          -47 callgsubr
          74 60 -60 144 -66 callsubr
          -57 69 164 59 -47 178 hintmask 1110100100000000
          386 -36 callsubr
          hintmask 1110100010000000
          -84 callgsubr
          hintmask 1110010100000000
          -72 callsubr
          hintmask 1110100010000000
          -94 callsubr
          hintmask 1101100100000000
          -190 197 rmoveto
          hintmask 1110100100000000
          -51 callsubr
          hintmask 1101001100000000
          -90 callgsubr
        </CharString>
        <CharString name="Ucircumflex">
          -47 callgsubr
          247 -20 -99 callgsubr
          -438 113 -96 callgsubr
        </CharString>
        <CharString name="Udieresis">
          -47 callgsubr
          68 146 -66 callsubr
          -77 -29 callgsubr
          -79 190 -178 178 hintmask 1111000100000000
          386 -36 callsubr
          hintmask 1111000010000000
          -84 callgsubr
          hintmask 1110101000000000
          -72 callsubr
          hintmask 1111000100000000
          -94 callsubr
          hintmask 1110011000000000
          -433 120 -102 callgsubr
        </CharString>
        <CharString name="Udotbelow">
          77 -40 callgsubr
          41 246 583 -20 21 -20 -66 callsubr
          15 150 11 190 -178 178 hintmask 1110101100000000
          386 -36 callsubr
          hintmask 1110101010000000
          -84 callgsubr
          hintmask 1110011100000000
          -72 callsubr
          hintmask 1101101100000000
          -94 callsubr
          hintmask 1110101100000000
          -266 -871 rmoveto
          -95 callgsubr
        </CharString>
        <CharString name="Ugrave">
          -47 callgsubr
          51 191 -99 callgsubr
          -277 221 -81 callsubr
        </CharString>
        <CharString name="Uhungarumlaut">
          -47 callgsubr
          51 191 -99 callgsubr
          -392 30 -72 callgsubr
        </CharString>
        <CharString name="Umacron">
          -47 callgsubr
          103 94 -99 callgsubr
          -424 176 -48 callgsubr
        </CharString>
        <CharString name="Uogonek">
          77 -205 73 950 -20 -66 callsubr
          -10 90 96 190 -178 178 hintmask 11101100
          385 -76 callsubr
          25 25 43 36 36 hvcurveto
          202 25 23 185 182 vvcurveto
          100 -7 139 -3 194 vhcurveto
          -180 hlineto
          hintmask 11101010
          -84 callgsubr
          hintmask 11010100
          -72 callsubr
          hintmask 11101100
          -7 -216 -7 -120 -98 vvcurveto
          -177 22 -198 222 -18 vhcurveto
          -41 -44 -23 -46 -36 -73 callsubr
          endchar
        </CharString>
        <CharString name="Uring">
          -47 callgsubr
          51 48 101 46 -66 callsubr
          -14 51 102 51 -14 190 -178 178 hintmask 1111100010000000
          386 -36 callsubr
          hintmask 1111100001000000
          -84 callgsubr
          hintmask 1111010100000000
          -72 callsubr
          hintmask 1111100010000000
          -94 callsubr
          -267 78 rmoveto
          hintmask 1111001100000000
          -79 callgsubr
          endchar
        </CharString>
        <CharString name="Utilde">
          -47 callgsubr
          62 100 -42 42 -42 99 -66 callsubr
          176 190 -178 178 hintmask 1110010100000000
          386 -36 callsubr
          hintmask 1110010010000000
          -84 callgsubr
          hintmask 1110001100000000
          -72 callsubr
          hintmask 1101010100000000
          -94 callsubr
          -449 60 -64 callgsubr
          hintmask 1110010100000000
          -91 callsubr
          hintmask 1100110100000000
          -79 callsubr
        </CharString>
        <CharString name="V">
          42 -55 callgsubr
          hstem
          281 196 rmoveto
          -115 622 rlineto
          -171 hlineto
          162 -818 rlineto
          248 hlineto
          162 818 rlineto
          -170 hlineto
          endchar
        </CharString>
        <CharString name="W">
          292 -55 callgsubr
          hstem
          -86 callsubr
          endchar
        </CharString>
        <CharString name="Wacute">
          292 -55 callgsubr
          51 191 hstem
          -86 callsubr
          -303 31 -94 callgsubr
        </CharString>
        <CharString name="Wcircumflex">
          292 -55 callgsubr
          247 -20 hstem
          -86 callsubr
          -411 114 -96 callgsubr
        </CharString>
        <CharString name="Wdieresis">
          292 -55 callgsubr
          68 146 hstem
          238 15 callsubr
          -86 callsubr
          -406 121 -102 callgsubr
        </CharString>
        <CharString name="Wgrave">
          292 -55 callgsubr
          51 191 hstem
          -86 callsubr
          -250 222 -81 callsubr
        </CharString>
        <CharString name="X">
          10 22 -21 817 -20 hstem
          265 531 rmoveto
          -101 287 rlineto
          -177 hlineto
          160 -386 -162 -431 rlineto
          176 hlineto
          104 325 105 -325 rlineto
          175 hlineto
          -162 431 160 386 rlineto
          -177 hlineto
          endchar
        </CharString>
        <CharString name="Y">
          -55 callgsubr
          hstem
          185 167 vstem
          -88 callgsubr
          endchar
        </CharString>
        <CharString name="Yacute">
          -55 callgsubr
          51 191 hstem
          185 167 vstem
          -88 callgsubr
          -177 31 -94 callgsubr
        </CharString>
        <CharString name="Ycircumflex">
          -55 callgsubr
          247 -20 hstem
          185 167 vstem
          -88 callgsubr
          -285 114 -96 callgsubr
        </CharString>
        <CharString name="Ydieresis">
          -55 callgsubr
          68 146 hstemhm
          102 143 -60 167 -61 143 hintmask 11101000
          -88 callgsubr
          hintmask 11110100
          -280 121 -102 callgsubr
        </CharString>
        <CharString name="Ygrave">
          -55 callgsubr
          51 191 hstem
          185 167 vstem
          -88 callgsubr
          -124 222 -81 callsubr
        </CharString>
        <CharString name="Ytilde">
          -55 callgsubr
          62 -56 callsubr
          185 167 hintmask 11010100
          -88 callgsubr
          -296 61 -64 callgsubr
          hintmask 11100100
          -91 callsubr
          hintmask 11001100
          -79 callsubr
        </CharString>
        <CharString name="Z">
          -7 callgsubr
          hstem
          488 hmoveto
          -19 callsubr
          -97 callgsubr
          -17 callsubr
          endchar
        </CharString>
        <CharString name="Zacute">
          -7 callgsubr
          31 191 hstem
          488 hmoveto
          -19 callsubr
          -97 callgsubr
          -17 callsubr
          193 849 -94 callgsubr
        </CharString>
        <CharString name="Zcaron">
          -7 callgsubr
          227 -20 hstem
          488 hmoveto
          -19 callsubr
          -97 callgsubr
          -17 callsubr
          256 863 -90 callsubr
        </CharString>
        <CharString name="Zdotaccent">
          -7 callgsubr
          36 172 hstem
          182 172 vstem
          488 hmoveto
          -19 callsubr
          -97 callgsubr
          -17 callsubr
          170 939 -85 callsubr
        </CharString>
        <CharString name="Zdotbelow">
          -14 -40 callgsubr
          52 213 426 179 hstem
          167 150 vstem
          488 hmoveto
          -19 callsubr
          -97 callgsubr
          -17 callsubr
          230 -52 rmoveto
          -95 callgsubr
        </CharString>
        <CharString name="a">
          -69 callgsubr
          -46 callsubr
          139 hintmask 10011100
          -67 callgsubr
          hintmask 10101100
          -102 callsubr
          hintmask 01011100
          -75 callsubr
          hintmask 10101100
          -92 callsubr
          endchar
        </CharString>
        <CharString name="aacute">
          -69 callgsubr
          72 191 -61 callsubr
          hintmask 10011110
          -67 callgsubr
          hintmask 10101110
          -102 callsubr
          hintmask 01011110
          -75 callsubr
          hintmask 10101110
          -92 callsubr
          32 289 -94 callgsubr
        </CharString>
        <CharString name="abreve">
          -69 callgsubr
          95 -23 callgsubr
          10 191 -51 69 153 70 hintmask 1001101010000000
          -67 callgsubr
          hintmask 1010101010000000
          -102 callsubr
          hintmask 0101101010000000
          -75 callsubr
          hintmask 1010011010000000
          -92 callsubr
          172 456 rmoveto
          hintmask 1010101010000000
          -51 callsubr
          hintmask 1010010110000000
          -90 callgsubr
        </CharString>
        <CharString name="acircumflex">
          -69 callgsubr
          268 4 callgsubr
          hintmask 10011110
          -67 callgsubr
          hintmask 10101110
          -102 callsubr
          hintmask 01011110
          -75 callsubr
          hintmask 10101110
          -92 callsubr
          -76 372 -96 callgsubr
        </CharString>
        <CharString name="acute">
          -253 650 191 hstem
          20 650 -94 callgsubr
        </CharString>
        <CharString name="adieresis">
          -69 callgsubr
          89 146 -39 callgsubr
          -71 -29 callgsubr
          -90 139 hintmask 1001110010000000
          -67 callgsubr
          hintmask 1010110010000000
          -102 callsubr
          hintmask 0101110010000000
          -75 callsubr
          hintmask 1010110010000000
          -92 callsubr
          hintmask 1010101100000000
          -71 379 -102 callgsubr
        </CharString>
        <CharString name="ae">
          -4 callsubr
          hstemhm
          4 164 hintmask 01110100
          -76 callgsubr
          hintmask 10101100
          -40 callsubr
          endchar
        </CharString>
        <CharString name="aeacute">
          -4 callsubr
          41 191 hstemhm
          4 164 hintmask 01110110
          -76 callgsubr
          hintmask 10101110
          -40 callsubr
          44 361 -94 callgsubr
        </CharString>
        <CharString name="agrave">
          -69 callgsubr
          72 191 -61 callsubr
          hintmask 10011110
          -67 callgsubr
          hintmask 10101110
          -102 callsubr
          hintmask 01011110
          -75 callsubr
          hintmask 10101110
          -92 callsubr
          85 480 -81 callsubr
        </CharString>
        <CharString name="amacron">
          -69 callgsubr
          124 94 -61 callsubr
          hintmask 10011110
          -67 callgsubr
          hintmask 10101110
          -102 callsubr
          hintmask 01011110
          -75 callsubr
          hintmask 10101110
          -92 callsubr
          -62 435 -48 callgsubr
        </CharString>
        <CharString name="ampersand">
          229 -11 -21 21 218 494 129 hstemhm
          5 172 -99 148 133 141 hintmask 01101100
          500 661 rmoveto
          101 -81 68 -106 -133 -102 -96 -117 -48 18 -49 52 -70 vhcurveto
          hintmask 10110100
          -107 -77 -36 -65 -95 vvcurveto
          -138 90 -86 143 96 85 28 64 87 vhcurveto
          123 -113 121 148 -40 31 -37 29 -34 28 rlinecurve
          39 42 39 48 29 40 -33 44 -102 84 -59 32 -33 -54 -32 -47 -31 -39 -42 35 -35 32 -29 27 rrcurveto
          102 65 48 66 82 vvcurveto
          hintmask 01101100
          -274 -33 rmoveto
          42 29 31 41 39 24 -22 -38 -43 -24 -33 -62 -37 vhcurveto
          -34 42 -13 30 28 vvcurveto
          28 -421 rmoveto
          hintmask 01110100
          -45 -32 31 45 28 14 26 28 27 hvcurveto
          33 -37 41 -41 48 -47 rrcurveto
          -21 -31 -29 -11 -27 hhcurveto
          endchar
        </CharString>
        <CharString name="aogonek">
          -205 73 142 -70 callgsubr
          -11 -20 -39 callgsubr
          149 90 -68 142 hintmask 10110110
          535 -76 callsubr
          hvcurveto
          hintmask 10101101
          27 34 47 40 37 vhcurveto
          598 -142 -50 vlineto
          hintmask 11010101
          -102 callsubr
          hintmask 10110101
          -49 52 vlineto
          hintmask 11010110
          -47 -47 -27 -50 -38 -73 callsubr
          -341 544 rmoveto
          -45 callgsubr
          vhcurveto
          hintmask 11010101
          49 38 -41 -51 -55 -41 -41 -50 -47 -33 37 54 hvcurveto
          endchar
        </CharString>
        <CharString name="apostrophe">
          -232 640 201 hstem
          90 640 -54 callsubr
        </CharString>
        <CharString name="approxequal">
          -16 143 19 callgsubr
          71 19 callgsubr
          hstemhm
          hintmask 10001000
          32 389 rmoveto
          23 40 40 6 40 hhcurveto
          hintmask 10010000
          -38 callgsubr
          hintmask 01000100
          -9 callsubr
          -362 vmoveto
          23 40 40 6 40 hhcurveto
          hintmask 10010000
          -38 callgsubr
          hintmask 00110000
          -9 callsubr
          endchar
        </CharString>
        <CharString name="aring">
          -69 callgsubr
          72 48 101 46 -39 callgsubr
          -8 51 102 51 -25 139 hintmask 1001111001000000
          -67 callgsubr
          hintmask 1010111001000000
          -102 callsubr
          hintmask 0101111001000000
          -75 callsubr
          hintmask 1010111001000000
          -92 callsubr
          95 337 rmoveto
          hintmask 1010110110000000
          -79 callgsubr
          endchar
        </CharString>
        <CharString name="aringacute">
          -69 callgsubr
          58 48 101 46 23 191 -39 callgsubr
          -8 51 102 51 -25 139 hintmask 1001111100100000
          -67 callgsubr
          hintmask 1010111100100000
          -102 callsubr
          hintmask 0101111100100000
          -75 callsubr
          hintmask 1010111100100000
          -92 callsubr
          95 323 rmoveto
          hintmask 1010111011000000
          -79 callgsubr
          -44 218 -94 callgsubr
        </CharString>
        <CharString name="asciicircum">
          -2 147 -21 380 -20 hstem
          228 506 rmoveto
          -214 -380 rlineto
          103 hlineto
          142 264 142 -264 rlineto
          103 hlineto
          -214 380 rlineto
          endchar
        </CharString>
        <CharString name="asciitilde">
          -24 261 19 callgsubr
          hstemhm
          hintmask 01000000
          28 271 rmoveto
          23 40 40 6 40 hhcurveto
          hintmask 10000000
          -38 callgsubr
          hintmask 00100000
          -9 callsubr
          endchar
        </CharString>
        <CharString name="asterisk">
          -70 461 -21 401 -20 hstem
          59 765 rmoveto
          -43 -105 139 -42 -104 -109 90 -69 84 133 87 -133 88 69 -103 110 137 41 -42 105 -126 -66 13 142 rlineto
          -111 hlineto
          13 -139 rlineto
          endchar
        </CharString>
        <CharString name="at">
          408 -173 122 76 127 -110 209 150 110 132 112 hstemhm
          19 122 99 153 136 123 135 125 hintmask 1101111110000000
          544 126 rmoveto
          -64 6 44 -37 70 hhcurveto
          139 109 147 187 236 -173 160 -255 -278 -187 -192 -285 -273 173 -178 263 40 36 4 8 30 hvcurveto
          -20 117 rlineto
          -5 -32 -32 -2 -26 hhcurveto
          -197 -113 117 214 234 134 129 201 188 123 -113 -178 -114 -51 -86 -51 -23 -10 18 33 hvcurveto
          311 -123 -40 vlineto
          23 -26 -40 14 -41 hhcurveto
          -110 -72 -99 -149 hvcurveto
          hintmask 1011111110000000
          -138 62 -83 104 60 44 28 56 29 vhcurveto
          -146 198 rmoveto
          45 28 32 39 39 30 -32 -41 -43 -32 -34 -41 -37 -26 30 43 vhcurveto
          endchar
        </CharString>
        <CharString name="atilde">
          -69 callgsubr
          83 100 -42 42 -42 99 -61 callsubr
          hintmask 1001100110000000
          -67 callgsubr
          hintmask 1010100110000000
          -102 callsubr
          hintmask 0101100110000000
          -75 callsubr
          hintmask 1010010110000000
          -92 callsubr
          -87 319 -64 callgsubr
          hintmask 1010100110000000
          -91 callsubr
          hintmask 1010001110000000
          -79 callsubr
        </CharString>
        <CharString name="b">
          -68 callgsubr
          232 -20 hstemhm
          25 -1 callsubr
          hintmask 01111100
          28 hmoveto
          137 49 hlineto
          hintmask 10111100
          -59 callsubr
          hintmask 01111100
          142 -480 -64 callsubr
          endchar
        </CharString>
        <CharString name="backslash">
          -72 -23 -21 862 -20 hstem
          11 -36 callsubr
          308 -862 rlineto
          116 hlineto
          -308 862 rlineto
          endchar
        </CharString>
        <CharString name="bar">
          -339 -171 -21 1033 -20 hstem
          37 107 vstem
          37 841 rmoveto
          -1033 107 1033 vlineto
          endchar
        </CharString>
        <CharString name="braceleft">
          16 callgsubr
          -4 197 -105 105 -105 186 hintmask 11100100
          274 874 rmoveto
          -49 hlineto
          -72 -65 -50 -101 hvcurveto
          -180 vlineto
          hintmask 11110000
          -59 -39 -38 -53 vhcurveto
          -90 vlineto
          hintmask 11101000
          53 39 -40 -67 hvcurveto
          -180 vlineto
          -101 65 -50 72 vhcurveto
          hintmask 11100100
          49 106 -23 hlineto
          hintmask 11110000
          -41 -17 24 48 hvcurveto
          187 vlineto
          80 -33 31 -41 5 vhcurveto
          4 vlineto
          41 2 33 43 61 vvcurveto
          187 vlineto
          48 17 24 41 vhcurveto
          hintmask 11100100
          23 hlineto
          endchar
        </CharString>
        <CharString name="braceright">
          16 callgsubr
          10 186 -105 105 -105 197 hintmask 11110000
          10 768 rmoveto
          23 hlineto
          hintmask 11101000
          41 17 -24 -48 hvcurveto
          -187 vlineto
          -61 33 -43 41 -2 vhcurveto
          -4 vlineto
          -41 -5 -33 -31 -80 vvcurveto
          -187 vlineto
          -48 -17 -24 -41 vhcurveto
          hintmask 11110000
          -23 -106 49 hlineto
          72 65 50 101 hvcurveto
          180 vlineto
          hintmask 11100100
          67 39 40 53 vhcurveto
          90 vlineto
          hintmask 11110000
          -53 -39 38 59 hvcurveto
          180 vlineto
          101 -65 50 -72 vhcurveto
          -49 hlineto
          endchar
        </CharString>
        <CharString name="bracketleft">
          -239 -72 100 735 100 hstemhm
          39 116 -116 234 hintmask 11100000
          157 28 rmoveto
          -1 110 -1 138 114 vvcurveto
          114 1 144 1 115 vhcurveto
          hintmask 11010000
          116 100 -237 hlineto
          2 -168 1 -137 -168 vvcurveto
          -168 -1 -127 -2 -167 vhcurveto
          237 100 hlineto
          endchar
        </CharString>
        <CharString name="bracketright">
          -239 -72 100 735 100 hstemhm
          8 234 -116 116 hintmask 11100000
          8 28 rmoveto
          -100 237 vlineto
          -2 167 -1 127 168 vvcurveto
          168 1 137 2 168 vhcurveto
          -237 -100 116 hlineto
          hintmask 11010000
          1 -115 1 -144 -114 vvcurveto
          -114 -1 -138 -1 -110 vhcurveto
          endchar
        </CharString>
        <CharString name="breve">
          -188 673 -23 callgsubr
          20 69 154 69 hintmask 01110000
          243 817 rmoveto
          hintmask 10110000
          -51 callsubr
          hintmask 01110000
          -90 callgsubr
        </CharString>
        <CharString name="brokenbar">
          -335 -97 -21 878 -20 hstem
          39 107 vstem
          39 256 rmoveto
          -374 107 374 vlineto
          -107 504 rmoveto
          -374 107 374 vlineto
          endchar
        </CharString>
        <CharString name="bullet">
          -131 269 -21 318 -20 hstem
          37 400 rmoveto
          -114 97 -38 66 83 69 62 89 84 -62 83 -91 -77 -85 -59 -107 vhcurveto
          endchar
        </CharString>
        <CharString name="c">
          2 callgsubr
          hstem
          10 212 vstem
          -99 callsubr
          endchar
        </CharString>
        <CharString name="cacute">
          2 callgsubr
          41 191 hstem
          10 212 vstem
          -99 callsubr
          -112 41 -94 callgsubr
        </CharString>
        <CharString name="caron">
          -138 685 -21 182 -20 hstem
          191 664 -90 callsubr
        </CharString>
        <CharString name="caron.alt">
          -347 640 201 hstem
          27 640 -54 callsubr
        </CharString>
        <CharString name="ccaron">
          2 callgsubr
          237 -20 hstem
          10 212 vstem
          -99 callsubr
          -49 55 -90 callsubr
        </CharString>
        <CharString name="ccedilla">
          -90 -205 151 64 3 callgsubr
          hstem
          10 212 vstem
          -99 callsubr
          -81 -664 -62 callgsubr
        </CharString>
        <CharString name="ccircumflex">
          2 callgsubr
          237 -20 hstem
          10 212 vstem
          -99 callsubr
          -220 124 -96 callgsubr
        </CharString>
        <CharString name="cdotaccent">
          2 callgsubr
          46 172 hstemhm
          10 212 -56 172 hintmask 11110000
          -99 callsubr
          hintmask 11101000
          -135 131 -85 callsubr
        </CharString>
        <CharString name="cedilla">
          -264 -205 151 hstem
          74 -55 -62 callgsubr
        </CharString>
        <CharString name="cent">
          -115 -84 -37 callgsubr
          hstem
          16 191 vstem
          16 304 rmoveto
          -138 62 -97 109 -32 vhcurveto
          -18 -142 rlineto
          141 hlineto
          -17 131 26 1 28 4 27 6 rlinecurve
          43 1 44 42 44 -1 43 39 vvcurveto
          -17 -23 -29 -10 -23 hhcurveto
          -50 -42 45 53 37 22 53 72 29 25 -9 -17 19 hvcurveto
          22 1 26 25 25 -1 24 20 vvcurveto
          -24 8 -27 6 -30 1 17 129 rcurveline
          -141 hlineto
          18 -142 rlineto
          -114 -34 -57 -102 -131 vvcurveto
          endchar
        </CharString>
        <CharString name="circumflex">
          -138 686 -21 181 -20 hstem
          20 733 -96 callgsubr
        </CharString>
        <CharString name="colon">
          -258 -11 215 190 215 hstem
          25 212 vstem
          132 204 rmoveto
          -83 callgsubr
          405 vmoveto
          -83 callgsubr
          endchar
        </CharString>
        <CharString name="comma">
          -291 -154 -21 378 -20 hstem
          61 155 vstem
          4 112 rmoveto
          -53 callsubr
          -53 -44 -36 -55 -14 vhcurveto
          endchar
        </CharString>
        <CharString name="commaaccent">
          -264 -22 callgsubr
          hstem
          74 -55 -78 callgsubr
        </CharString>
        <CharString name="copyright">
          231 47 85 89 117 171 104 78 80 hstem
          20 90 108 101 323 89 vstem
          218 417 rmoveto
          -120 71 -76 117 26 26 3 5 23 vhcurveto
          123 vlineto
          -8 -24 -25 -6 -23 hhcurveto
          -48 -42 26 62 66 44 17 52 21 21 -2 -8 21 hvcurveto
          4 100 rlineto
          10 -28 -27 4 -28 hhcurveto
          -116 -65 -81 -115 hvcurveto
          168 -285 rmoveto
          -184 -92 132 156 160 99 111 174 180 79 -121 -154 -152 -74 -132 -182 hvcurveto
          -8 -85 rmoveto
          230 123 167 207 204 -122 146 -227 -227 -135 -144 -209 -203 127 -168 231 hvcurveto
          endchar
        </CharString>
        <CharString name="currency">
          69 28 -21 59 99 249 94 64 -20 hstem
          81 96 237 96 vstem
          300 66 rmoveto
          38 33 8 14 28 hvcurveto
          82 -81 92 92 -85 84 rlineto
          15 33 7 37 39 vvcurveto
          38 -7 35 -14 30 vhcurveto
          84 84 -92 93 -84 -84 rlineto
          13 -28 -33 7 -38 hhcurveto
          -40 -35 -8 -14 -30 hvcurveto
          -84 86 -93 -93 86 -85 rlineto
          -14 -30 -7 -34 -37 vvcurveto
          -39 8 -36 14 -32 vhcurveto
          -86 -86 93 -92 83 83 rlineto
          -16 30 36 -9 41 hhcurveto
          -2 99 rmoveto
          -76 -45 56 69 70 45 54 76 76 40 -55 -69 -69 -41 -56 -75 hvcurveto
          endchar
        </CharString>
        <CharString name="d">
          -68 callgsubr
          232 4 callgsubr
          hintmask 10111100
          514 841 rmoveto
          -142 -293 hlineto
          -102 callsubr
          hintmask 01111100
          -74 callsubr
          endchar
        </CharString>
        <CharString name="dagger">
          -60 -60 -21 899 -20 hstem
          178 104 vstem
          168 -36 callsubr
          20 callsubr
          167 15 -15 -182 20 -380 rlineto
          84 hlineto
          20 380 -16 182 168 12 callgsubr
          endchar
        </CharString>
        <CharString name="daggerdbl">
          -54 -120 -21 959 -20 hstem
          179 107 vstem
          171 339 rmoveto
          14 -144 -166 16 rlineto
          -132 vlineto
          168 16 -16 -236 rlineto
          124 hlineto
          -17 236 169 -16 rlineto
          132 vlineto
          -167 -16 15 144 -15 142 167 12 callgsubr
          -124 hlineto
          20 callsubr
          166 15 rlineto
          endchar
        </CharString>
        <CharString name="dcaron">
          -68 callgsubr
          31 201 -61 callsubr
          hintmask 10111100
          514 841 rmoveto
          -142 -293 hlineto
          -102 callsubr
          hintmask 01111100
          -74 callsubr
          348 279 -54 callsubr
        </CharString>
        <CharString name="dcroat">
          -68 callgsubr
          61 112 59 -20 -46 callsubr
          141 hintmask 10111110
          514 841 rmoveto
          -142 -59 -133 -112 133 -122 hlineto
          -102 callsubr
          hintmask 01111110
          -49 141 670 62 112 -62 vlineto
          -312 -421 rmoveto
          -92 callsubr
          endchar
        </CharString>
        <CharString name="ddotbelow">
          -40 callgsubr
          62 -70 callgsubr
          232 -20 -39 callgsubr
          8 150 13 139 hintmask 11011111
          514 841 rmoveto
          -142 -293 hlineto
          -102 callsubr
          hintmask 10111111
          -74 callsubr
          83 -413 rmoveto
          -95 callgsubr
        </CharString>
        <CharString name="degree">
          -180 516 75 181 69 hstem
          8 72 179 72 vstem
          170 591 rmoveto
          -55 -35 38 52 49 35 42 55 57 32 -42 -48 -53 -32 -38 -57 hvcurveto
          -75 vmoveto
          107 54 76 91 91 -56 67 -106 -99 -62 -67 -92 -90 65 -76 97 hvcurveto
          endchar
        </CharString>
        <CharString name="dieresis">
          -148 667 146 hstem
          20 15 callsubr
          20 740 -102 callgsubr
        </CharString>
        <CharString name="divide">
          -33 56 172 66 99 65 172 hstem
          158 170 vstem
          244 630 rmoveto
          1 callgsubr
          -402 vmoveto
          1 callgsubr
          -227 165 rmoveto
          -99 453 99 vlineto
          endchar
        </CharString>
        <CharString name="dollar">
          -149 -55 callgsubr
          hstemhm
          21 195 -34 171 hintmask 11100000
          86 654 rmoveto
          -47 -38 -18 -54 -50 vvcurveto
          hintmask 11010000
          -150 161 22 -71 vvcurveto
          -17 -13 -10 -24 -33 -47 18 11 -26 vhcurveto
          -5 -21 -3 -43 -23 vvcurveto
          -22 3 -25 5 -20 vhcurveto
          25 -12 34 -6 30 -3 -18 -140 rcurveline
          141 hlineto
          -20 147 rlineto
          65 17 57 44 79 vvcurveto
          hintmask 11100000
          125 -137 -1 57 vvcurveto
          16 17 4 21 29 35 -9 -1 6 vhcurveto
          2 29 0 29 28 vvcurveto
          39 -1 39 -1 39 vhcurveto
          -28 9 -31 6 -30 1 16 121 rcurveline
          -141 hlineto
          18 -139 -15 -7 -14 -8 -13 -10 rlinecurve
          endchar
        </CharString>
        <CharString name="dotaccent">
          -308 655 172 hstem
          20 172 vstem
          20 740 -85 callsubr
        </CharString>
        <CharString name="dotbelow">
          -293 -40 callgsubr
          hstem
          42 150 vstem
          117 -52 rmoveto
          -95 callgsubr
        </CharString>
        <CharString name="dotlessi">
          4 callsubr
          582 -20 6 callsubr
          endchar
        </CharString>
        <CharString name="dotlessj">
          -332 -7 callsubr
          635 -20 hstemhm
          26 136 vstemhm
          162 582 rmoveto
          -136 -567 hlineto
          -55 -7 -13 -33 -9 -19 1 3 -8 vhcurveto
          hintmask 11100000
          -5 -21 -3 -30 -28 vvcurveto
          -16 1 -22 5 -18 vhcurveto
          -5 20 45 -3 22 hhcurveto
          60 37 21 45 17 hvcurveto
          12 32 1 40 51 vvcurveto
          endchar
        </CharString>
        <CharString name="e">
          -63 callgsubr
          hstem
          -107 callgsubr
          endchar
        </CharString>
        <CharString name="eacute">
          -63 callgsubr
          41 191 hstem
          -107 callgsubr
          -70 149 -94 callgsubr
        </CharString>
        <CharString name="ebreve">
          -63 callgsubr
          64 -23 callgsubr
          134 69 154 69 hintmask 11101110
          -107 callgsubr
          70 316 rmoveto
          hintmask 11110110
          -51 callsubr
          hintmask 11101110
          -90 callgsubr
        </CharString>
        <CharString name="ecaron">
          -63 callgsubr
          237 -20 hstem
          -107 callgsubr
          -7 163 -90 callsubr
        </CharString>
        <CharString name="ecircumflex">
          -63 callgsubr
          237 -20 hstem
          -107 callgsubr
          -178 232 -96 callgsubr
        </CharString>
        <CharString name="edieresis">
          -63 callgsubr
          58 146 hstem
          114 15 callsubr
          -107 callgsubr
          -173 239 -102 callgsubr
        </CharString>
        <CharString name="edotaccent">
          -63 callgsubr
          46 172 hstem
          194 172 vstem
          -107 callgsubr
          -93 239 -85 callsubr
        </CharString>
        <CharString name="edotbelow">
          2 -40 callgsubr
          41 229 97 107 79 108 hstem
          228 150 vstem
          -107 callgsubr
          16 -553 rmoveto
          -95 callgsubr
        </CharString>
        <CharString name="egrave">
          -63 callgsubr
          41 191 hstem
          -107 callgsubr
          -17 340 -81 callsubr
        </CharString>
        <CharString name="eight">
          54 -11 213 179 129 154 166 hstemhm
          18 180 -149 149 166 162 -149 179 hintmask 11110010
          289 -11 rmoveto
          173 94 88 159 136 -73 58 -66 26 hvcurveto
          hintmask 11101100
          59 13 50 65 92 vvcurveto
          135 -114 69 -125 -127 -111 -69 -134 -100 53 -54 55 -17 vhcurveto
          hintmask 11110010
          -56 -14 -83 -56 -146 vvcurveto
          -159 94 -92 177 vhcurveto
          -2 392 rmoveto
          63 27 -49 -39 -41 -31 -50 -61 -54 -33 41 50 49 32 39 57 hvcurveto
          -2 283 rmoveto
          hintmask 11110100
          54 25 -46 -33 -36 -29 -39 -51 -45 -30 32 43 41 29 38 47 hvcurveto
          endchar
        </CharString>
        <CharString name="ellipsis">
          297 -11 215 hstem
          11 212 80 212 80 212 cntrmask 01110000
          118 204 rmoveto
          -83 callgsubr
          292 hmoveto
          -83 callgsubr
          292 hmoveto
          -83 callgsubr
          endchar
        </CharString>
        <CharString name="emacron">
          -63 callgsubr
          93 94 hstem
          -107 callgsubr
          -164 295 -48 callgsubr
        </CharString>
        <CharString name="emdash">
          126 -58 callsubr
          591 13 callsubr
        </CharString>
        <CharString name="endash">
          -56 -58 callsubr
          409 hlineto
          27 2 26 26 27 -2 26 28 vvcurveto
          endchar
        </CharString>
        <CharString name="eng">
          -62 -193 132 82 -21 365 244 -11 -20 hstemhm
          25 145 39 225 -147 147 hintmask 11011100
          25 598 rmoveto
          -97 1 -168 -50 vvcurveto
          -85 0 -110 -1 -88 vhcurveto
          145 310 hlineto
          hintmask 11101010
          32 33 23 31 32 21 -24 -35 vhcurveto
          -306 vlineto
          -48 -3 -13 -31 -9 -19 1 3 -8 vhcurveto
          hintmask 11101100
          -5 -21 -3 -24 -24 vvcurveto
          -21 2 -20 5 -18 vhcurveto
          -6 31 36 -2 17 hhcurveto
          110 24 81 95 hvcurveto
          444 vlineto
          41 -3 39 -6 18 vhcurveto
          48 -15 -54 36 -58 hhcurveto
          -47 -49 -25 -40 -32 hvcurveto
          hintmask 11011100
          54 vlineto
          endchar
        </CharString>
        <CharString name="eogonek">
          2 -205 73 123 227 97 107 79 108 hstem
          203 90 vstem
          388 -76 callsubr
          25 24 42 35 35 hvcurveto
          50 4 46 12 41 20 rrcurveto
          2 28 1 33 34 vvcurveto
          43 -1 45 -2 38 vhcurveto
          -14 -32 -58 -16 -43 hhcurveto
          -70 -39 40 57 -17 hvcurveto
          280 hlineto
          88 -6 63 -38 53 vhcurveto
          56 -40 -67 34 -79 hhcurveto
          -38 -37 -8 -15 -33 hvcurveto
          -113 -51 -50 -133 -107 vvcurveto
          -72 23 -118 102 -68 vhcurveto
          42 -28 47 -12 45 -5 rrcurveto
          -42 -45 -23 -46 -36 -73 callsubr
          -108 684 -3 callsubr
        </CharString>
        <CharString name="equal">
          -14 148 146 102 146 hstem
          36 294 rmoveto
          -31 callsubr
          435 -35 callgsubr
          -435 248 rmoveto
          -31 callsubr
          435 -35 callgsubr
          endchar
        </CharString>
        <CharString name="eth">
          12 0 177 192 153 296 -20 hstem
          11 174 171 165 vstem
          91 675 rmoveto
          -70 vlineto
          142 42 34 -46 28 -48 15 -43 rlinecurve
          8 -28 -26 4 -25 hhcurveto
          -129 -91 -108 -148 -155 101 -111 149 154 106 122 176 129 -57 152 -81 113 hvcurveto
          107 32 rlineto
          70 vlineto
          -154 -46 -27 29 -28 24 -28 17 rlinecurve
          -214 hlineto
          43 -15 55 -45 50 -55 rrcurveto
          83 -334 rmoveto
          52 34 -37 -58 -59 -34 -38 -50 -52 -35 40 58 56 33 38 52 hvcurveto
          endchar
        </CharString>
        <CharString name="etilde">
          -63 callgsubr
          52 -56 callsubr
          hintmask 11101000
          -107 callgsubr
          -189 179 -64 callgsubr
          hintmask 11110000
          -91 callsubr
          hintmask 11100100
          -79 callsubr
        </CharString>
        <CharString name="exclam">
          -264 -11 215 0 99 538 -20 hstemhm
          13 212 hintmask 01110000
          69 841 rmoveto
          -538 121 vlineto
          49 521 rlineto
          -119 -620 rmoveto
          -69 -38 -60 -54 hvcurveto
          hintmask 10110000
          -50 33 -51 73 57 49 51 59 46 -38 59 -67 vhcurveto
          endchar
        </CharString>
        <CharString name="exclamdown">
          -273 -171 -21 538 99 0 215 hstemhm
          26 212 hintmask 11010000
          182 -192 rmoveto
          538 -121 vlineto
          -49 -521 rlineto
          119 620 rmoveto
          69 38 60 54 hvcurveto
          hintmask 10110000
          11 callsubr
          vhcurveto
          endchar
        </CharString>
        <CharString name="f">
          -229 -46 callgsubr
          vstemhm
          60 hmoveto
          136 320 79 210 -81 21 hlineto
          57 7 11 35 17 24 -2 -2 6 vhcurveto
          hintmask 11110000
          5 19 2 36 56 vvcurveto
          56 -2 33 -4 20 vhcurveto
          4 -12 -31 2 -20 hhcurveto
          -62 -49 -25 -44 -25 hvcurveto
          -19 -34 -7 -49 -87 vvcurveto
          -72 -45 -210 46 vlineto
          endchar
        </CharString>
        <CharString name="f.calt">
          -229 -46 callgsubr
          vstemhm
          60 hmoveto
          -55 callsubr
          hintmask 11110000
          -107 callsubr
          endchar
        </CharString>
        <CharString name="f_b">
          314 -3 callgsubr
          126 -1 callsubr
          hintmask 01101111
          325 hmoveto
          137 49 hlineto
          hintmask 10011111
          -59 callsubr
          hintmask 01011111
          142 -480 -64 callsubr
          -402 -361 rmoveto
          136 hlineto
          hintmask 01101111
          320 vlineto
          -107 callsubr
          endchar
        </CharString>
        <CharString name="f_f">
          77 -46 callgsubr
          170 136 vstemhm
          60 hmoveto
          -55 callsubr
          hintmask 11111000
          -107 callsubr
          306 -320 rmoveto
          136 320 79 210 -81 21 hlineto
          57 7 11 35 17 24 -2 -2 6 vhcurveto
          5 19 2 36 56 vvcurveto
          56 -2 33 -4 20 vhcurveto
          4 -12 -31 2 -20 hhcurveto
          -62 -49 -25 -44 -25 hvcurveto
          -19 -34 -7 -49 -87 vvcurveto
          -72 -45 -210 46 vlineto
          endchar
        </CharString>
        <CharString name="f_f_b">
          620 -3 callgsubr
          170 136 126 -1 callsubr
          hintmask 0110111110000000
          631 hmoveto
          137 49 hlineto
          hintmask 1001111110000000
          -59 callsubr
          hintmask 0101111110000000
          142 -480 -64 callsubr
          -402 -361 rmoveto
          136 hlineto
          hintmask 0110111110000000
          320 vlineto
          -107 callsubr
          -306 -320 -59 callgsubr
          -107 callsubr
          endchar
        </CharString>
        <CharString name="f_f_h">
          541 1 callsubr
          170 136 126 -41 callgsubr
          hintmask 10111111
          627 -92 callgsubr
          -417 -841 rmoveto
          136 hlineto
          hintmask 11011111
          320 vlineto
          -107 callsubr
          -306 -320 -59 callgsubr
          -107 callsubr
          endchar
        </CharString>
        <CharString name="f_f_i">
          295 21 -52 callgsubr
          91 136 -136 215 31 210 -180 147 hintmask 1110101001000000
          642 11 callgsubr
          hintmask 1110101010000000
          -83 callsubr
          -659 -830 -59 callgsubr
          hintmask 1110011010000000
          79 210 -81 21 hlineto
          40 9 28 33 7 8 -1 -3 9 vhcurveto
          5 19 2 36 56 vvcurveto
          52 -2 35 -4 22 vhcurveto
          hintmask 1101101010000000
          4 -13 -10 2 -37 hhcurveto
          -50 -43 -25 -44 -23 hvcurveto
          -18 -34 -8 -49 -87 vvcurveto
          -72 -45 -210 46 vlineto
          306 -320 -59 callgsubr
          hintmask 1110100110000000
          79 210 -81 21 hlineto
          40 9 28 33 7 8 -1 -3 9 vhcurveto
          5 19 2 36 56 vvcurveto
          52 -2 35 -4 22 vhcurveto
          hintmask 1101101010000000
          -68 callsubr
        </CharString>
        <CharString name="f_f_j">
          290 -7 callsubr
          74 -52 callgsubr
          91 136 -136 215 31 -17 callgsubr
          hintmask 1111010100100000
          784 582 -100 callgsubr
          -65 833 rmoveto
          hintmask 1111010101000000
          -83 callsubr
          -353 -830 -59 callgsubr
          hintmask 1111010011000000
          79 210 -81 21 hlineto
          40 9 28 33 7 8 -1 -3 9 vhcurveto
          5 19 2 36 56 vvcurveto
          52 -2 35 -4 22 vhcurveto
          hintmask 1110110101000000
          4 -13 -10 2 -37 hhcurveto
          -50 -43 -25 -44 -23 hvcurveto
          -18 -34 -8 -49 -87 vvcurveto
          -72 -45 -210 46 vlineto
          -306 -320 -59 callgsubr
          hintmask 1111001101000000
          79 210 -81 21 hlineto
          40 9 28 33 7 8 -1 -3 9 vhcurveto
          5 19 2 36 56 vvcurveto
          52 -2 35 -4 22 vhcurveto
          hintmask 1110110101000000
          -68 callsubr
        </CharString>
        <CharString name="f_f_k">
          567 -25 callgsubr
          68 -20 41 -50 callgsubr
          170 136 131 14 callsubr
          hintmask 11111110
          933 -26 callsubr
          hlineto
          hintmask 11111101
          -84 callsubr
          -727 -598 -59 callgsubr
          hintmask 11111110
          -107 callsubr
          -306 -320 -59 callgsubr
          -107 callsubr
          endchar
        </CharString>
        <CharString name="f_f_l">
          282 -46 callgsubr
          170 136 129 144 vstemhm
          630 841 -91 callgsubr
          -419 -841 -59 callgsubr
          hintmask 11111100
          -107 callsubr
          -306 -320 -59 callgsubr
          -107 callsubr
          endchar
        </CharString>
        <CharString name="f_f_t">
          390 -5 callsubr
          170 136 176 139 -139 218 hintmask 1011111100000000
          682 598 rmoveto
          -60 -266 60 hlineto
          -1 -39 -3 -103 -33 vvcurveto
          -82 22 -83 96 vhcurveto
          hintmask 0111111100000000
          -13 callsubr
          hvcurveto
          1 8 0 23 25 vvcurveto
          29 0 34 -2 9 vhcurveto
          hintmask 1011111100000000
          7 callgsubr
          hintmask 0111111010000000
          -45 callsubr
          -316 -714 -59 callgsubr
          hintmask 0111111100000000
          -107 callsubr
          -306 -320 -59 callgsubr
          -107 callsubr
          endchar
        </CharString>
        <CharString name="f_h">
          235 1 callsubr
          126 -41 callgsubr
          hintmask 10111110
          321 -92 callgsubr
          -417 -841 rmoveto
          136 hlineto
          hintmask 11011110
          320 vlineto
          -107 callsubr
          endchar
        </CharString>
        <CharString name="f_i">
          -11 21 -52 callgsubr
          31 210 -180 147 hintmask 11101001
          336 11 callgsubr
          hintmask 11101010
          -83 callsubr
          -353 -830 -59 callgsubr
          hintmask 11100110
          79 210 -81 21 hlineto
          40 9 28 33 7 8 -1 -3 9 vhcurveto
          5 19 2 36 56 vvcurveto
          52 -2 35 -4 22 vhcurveto
          hintmask 11011010
          -68 callsubr
        </CharString>
        <CharString name="f_j">
          -16 -7 callsubr
          74 -52 callgsubr
          31 -17 callgsubr
          hintmask 1111010010000000
          478 582 -100 callgsubr
          -65 833 rmoveto
          hintmask 1111010100000000
          -83 callsubr
          -353 -830 -59 callgsubr
          hintmask 1111001100000000
          79 210 -81 21 hlineto
          40 9 28 33 7 8 -1 -3 9 vhcurveto
          5 19 2 36 56 vvcurveto
          52 -2 35 -4 22 vhcurveto
          hintmask 1110110100000000
          -68 callsubr
        </CharString>
        <CharString name="f_k">
          261 -25 callgsubr
          68 -20 41 -50 callgsubr
          131 14 callsubr
          hintmask 11111100
          627 -26 callsubr
          hlineto
          hintmask 11111010
          -84 callsubr
          -727 -598 -59 callgsubr
          hintmask 11111100
          -107 callsubr
          endchar
        </CharString>
        <CharString name="f_l">
          -24 -46 callgsubr
          129 144 vstemhm
          324 841 -91 callgsubr
          -419 -841 -59 callgsubr
          hintmask 11111000
          -107 callsubr
          endchar
        </CharString>
        <CharString name="f_t">
          84 -5 callsubr
          176 139 -139 218 hintmask 10111110
          376 598 rmoveto
          -60 -266 60 hlineto
          -1 -39 -3 -103 -33 vvcurveto
          -82 22 -83 96 vhcurveto
          hintmask 01111110
          -13 callsubr
          hvcurveto
          1 8 0 23 25 vvcurveto
          29 0 34 -2 9 vhcurveto
          hintmask 10111110
          7 callgsubr
          hintmask 01111101
          -45 callsubr
          -316 -714 -59 callgsubr
          hintmask 01111110
          -107 callsubr
          endchar
        </CharString>
        <CharString name="five">
          -14 -11 204 181 134 114 196 hstem
          37 131 119 209 vstem
          465 618 rmoveto
          3 35 1 33 34 vvcurveto
          33 -1 32 -3 33 vhcurveto
          -431 hlineto
          2 -77 1 -88 -78 vvcurveto
          -81 -1 -80 -2 -81 vhcurveto
          26 28 46 15 53 hhcurveto
          78 48 -32 -56 -55 -48 -38 -74 -53 -50 20 32 -30 hvcurveto
          -2 -31 -1 -22 -40 vvcurveto
          -38 1 -26 2 -36 vhcurveto
          -54 38 90 -9 48 hhcurveto
          182 106 138 138 134 -99 109 -140 -28 -29 -5 -6 -29 hvcurveto
          -2 19 -1 20 20 vvcurveto
          19 1 32 2 20 vhcurveto
          endchar
        </CharString>
        <CharString name="florin">
          -205 -192 147 365 210 89 222 hstemhm
          -29 234 -136 230 hintmask 11110000
          205 320 rmoveto
          78 210 -78 21 hlineto
          55 8 13 29 9 32 -1 -3 8 vhcurveto
          hintmask 11101000
          6 32 2 44 43 vvcurveto
          42 -2 39 -5 20 vhcurveto
          4 -29 -28 2 -16 hhcurveto
          -60 -44 -32 -40 -22 hvcurveto
          -21 -38 -3 -48 -81 vvcurveto
          -72 -46 -210 46 -326 vlineto
          -33 -19 -6 -21 -10 -31 2 3 -8 vhcurveto
          hintmask 11110000
          -6 -34 -3 -22 -22 vvcurveto
          -21 3 -20 5 -28 vhcurveto
          -3 29 27 -2 16 hhcurveto
          114 40 80 140 hvcurveto
          endchar
        </CharString>
        <CharString name="four">
          -3 21 -21 165 221 432 -20 hstem
          275 158 vstem
          221 -36 callsubr
          -24 -67 -139 -264 -45 -101 rrcurveto
          -2 -29 0 -33 -32 vvcurveto
          -44 1 -41 1 -42 vhcurveto
          262 hlineto
          -1 -58 -1 -55 -2 -52 rrcurveto
          162 165 58 hlineto
          2 40 2 42 43 vvcurveto
          33 -1 33 -3 30 vhcurveto
          -58 hlineto
          145 2 128 7 159 vhcurveto
          -167 -145 rmoveto
          -74 1 -42 -157 vvcurveto
          -14 -145 vlineto
          endchar
        </CharString>
        <CharString name="fourinferior">
          -185 21 -21 99 133 259 -20 hstem
          168 111 vstem
          135 491 -71 callgsubr
        </CharString>
        <CharString name="foursuperior">
          -193 417 -21 99 133 259 -20 hstem
          167 111 vstem
          134 887 -71 callgsubr
        </CharString>
        <CharString name="fraction">
          -135 -21 -21 897 -20 hstem
          292 -24 callgsubr
        </CharString>
        <CharString name="g">
          -24 callsubr
          -46 callsubr
          142 hintmask 10111000
          372 41 -82 callsubr
          hintmask 11011000
          -81 callgsubr
          -54 -40 -42 -51 -48 -32 37 54 vhcurveto
          endchar
        </CharString>
        <CharString name="gbreve">
          -24 callsubr
          95 -23 callgsubr
          10 191 -51 69 153 70 -70 142 hintmask 1011010010000000
          372 41 -82 callsubr
          hintmask 1100110010000000
          -81 callgsubr
          -54 -40 -42 -51 -48 -32 37 54 vhcurveto
          172 456 rmoveto
          hintmask 1101010010000000
          -51 callsubr
          hintmask 1100101100000000
          -90 callgsubr
        </CharString>
        <CharString name="gcircumflex">
          -24 callsubr
          18 callsubr
          171 142 hintmask 10111100
          372 41 -82 callsubr
          hintmask 11011100
          -81 callgsubr
          -54 -40 -42 -51 -48 -32 37 54 vhcurveto
          -76 372 -96 callgsubr
        </CharString>
        <CharString name="gcommaaccent">
          18 -192 125 0 81 256 188 0 151 -11 -20 31 42 18 callsubr
          14 101 -101 156 1 142 hintmask 1001001101100000
          371 747 rmoveto
          hintmask 1010111110100000
          -33 7 -22 25 31 vvcurveto
          28 18 29 29 22 vhcurveto
          -33 30 rlineto
          -66 -35 -49 -74 -62 vvcurveto
          -57 26 -40 53 vhcurveto
          hintmask 1010111101100000
          65 12 45 51 hvcurveto
          1 -706 -82 callsubr
          hintmask 0101001101100000
          -81 callgsubr
          vhcurveto
          hintmask 1010111101100000
          -54 -40 -42 -51 -48 -32 37 54 vhcurveto
          endchar
        </CharString>
        <CharString name="gdotaccent">
          -24 callsubr
          77 172 -39 callgsubr
          9 172 -10 142 hintmask 10111010
          372 41 -82 callsubr
          hintmask 11011010
          -81 callgsubr
          -54 -40 -42 -51 -48 -32 37 54 vhcurveto
          hintmask 11011100
          9 379 -85 callsubr
        </CharString>
        <CharString name="germandbls">
          43 -59 -21 90 -21 715 137 hstemhm
          14 182 -137 137 46 161 -124 124 -47 47 -16 93 -93 177 hintmask 1110100010000000
          480 660 rmoveto
          111 -73 70 -125 -143 -80 -92 -163 vhcurveto
          -56 vlineto
          hintmask 1111000100000000
          -45 -210 46 -400 136 618 hlineto
          120 24 46 62 46 28 -25 -42 vhcurveto
          hintmask 1111001000000000
          -69 -77 -43 -76 vvcurveto
          hintmask 1111000001000000
          -90 108 -6 -56 vvcurveto
          -21 -15 -15 -27 -25 -33 12 20 -32 vhcurveto
          hintmask 1111010000000000
          -8 -41 -5 -54 -53 vvcurveto
          -53 5 -45 9 -34 vhcurveto
          -13 30 58 -11 39 hhcurveto
          hintmask 1111000001000000
          110 71 88 125 hvcurveto
          hintmask 1111010000000000
          187 -161 -22 100 vvcurveto
          hintmask 1111000010000000
          69 77 10 114 vvcurveto
          endchar
        </CharString>
        <CharString name="grave">
          -253 650 191 hstem
          174 841 -81 callsubr
        </CharString>
        <CharString name="greater">
          -95 94 -21 540 -20 hstem
          409 394 rmoveto
          -380 219 rlineto
          -128 vlineto
          264 -142 -264 -142 rlineto
          -128 vlineto
          380 219 rlineto
          endchar
        </CharString>
        <CharString name="greaterequal">
          20 callgsubr
          37 219 rmoveto
          -96 400 96 vlineto
          245 vmoveto
          -400 219 rlineto
          -118 vlineto
          307 -158 rlineto
          -307 -96 400 hlineto
          endchar
        </CharString>
        <CharString name="guillemotleft">
          240 8 -21 623 -20 hstem
          435 541 -38 callsubr
          543 242 -38 callsubr
          endchar
        </CharString>
        <CharString name="guillemotright">
          240 8 -21 623 -20 hstem
          255 299 -39 callsubr
          544 -242 -39 callsubr
          endchar
        </CharString>
        <CharString name="guilsinglleft">
          -67 8 -21 623 -20 hstem
          435 541 -38 callsubr
          endchar
        </CharString>
        <CharString name="guilsinglright">
          -67 8 -21 623 -20 hstem
          255 299 -39 callsubr
          endchar
        </CharString>
        <CharString name="h">
          -61 21 -21 365 244 232 -20 hstem
          26 -41 callgsubr
          vstem
          25 -92 callgsubr
          endchar
        </CharString>
        <CharString name="hbar">
          -61 21 -21 365 244 61 112 -112 171 hstemhm
          26 -41 callgsubr
          hintmask 11011100
          26 841 rmoveto
          hintmask 11101100
          -59 -60 -112 60 vlineto
          -290 0 -204 -2 -176 vhcurveto
          147 310 hlineto
          30 31 25 33 32 21 -25 -40 vhcurveto
          -300 147 427 vlineto
          41 -4 39 -5 18 vhcurveto
          48 -15 -55 36 -58 hhcurveto
          -46 -49 -25 -40 -32 hvcurveto
          41 0 38 2 47 vhcurveto
          129 112 -124 hlineto
          hintmask 11011100
          3 59 rlineto
          endchar
        </CharString>
        <CharString name="hcircumflex">
          -61 21 -21 365 244 232 -20 224 -20 hstem
          26 -41 callgsubr
          vstem
          25 -92 callgsubr
          -123 91 -96 callgsubr
        </CharString>
        <CharString name="hdotbelow">
          -61 -18 callgsubr
          365 244 232 -20 hstemhm
          26 145 -13 150 -20 147 hintmask 11111010
          25 -92 callgsubr
          52 -893 rmoveto
          hintmask 11110100
          -95 callgsubr
        </CharString>
        <CharString name="hungarumlaut">
          -131 650 191 hstem
          22 650 -72 callgsubr
        </CharString>
        <CharString name="hyphen">
          -169 -58 callsubr
          296 13 callsubr
        </CharString>
        <CharString name="i">
          -321 21 9 callgsubr
          hintmask 11010000
          26 11 callgsubr
          hintmask 11100000
          -83 callsubr
          endchar
        </CharString>
        <CharString name="iacute">
          -11 callgsubr
          13 68 -94 callgsubr
        </CharString>
        <CharString name="ibreve">
          4 callsubr
          673 -23 callgsubr
          -44 69 1 147 6 69 hintmask 10111100
          -37 callsubr
          153 235 rmoveto
          hintmask 11011100
          -51 callsubr
          hintmask 10111100
          -90 callgsubr
        </CharString>
        <CharString name="icircumflex">
          4 callsubr
          846 -20 hstem
          26 147 vstem
          -49 -4 callgsubr
          -76 -846 rmoveto
          -60 callsubr
          endchar
        </CharString>
        <CharString name="idieresis">
          4 callsubr
          667 146 hstemhm
          -54 133 -53 147 -48 133 hintmask 11101000
          -54 740 rmoveto
          -54 37 -19 28 39 29 31 42 41 -27 32 -42 -31 -33 -21 -52 vhcurveto
          179 1 rmoveto
          -55 37 -19 28 39 29 31 42 41 -27 32 -43 -30 -33 -21 -51 vhcurveto
          hintmask 11010000
          -99 -741 rmoveto
          -60 callsubr
          endchar
        </CharString>
        <CharString name="idotbelow">
          -321 -205 153 73 9 callgsubr
          hintmask 11101000
          26 11 callgsubr
          hintmask 11110000
          -83 callsubr
          -9 -882 rmoveto
          -95 callgsubr
        </CharString>
        <CharString name="igrave">
          -11 callgsubr
          56 259 -81 callsubr
        </CharString>
        <CharString name="ij">
          -99 -192 139 74 9 callgsubr
          50 -17 callgsubr
          hintmask 11101100
          26 11 callgsubr
          hintmask 11110010
          -83 callsubr
          292 -248 -100 callgsubr
          -65 833 rmoveto
          hintmask 11110100
          -83 callsubr
          endchar
        </CharString>
        <CharString name="imacron">
          4 callsubr
          702 94 hstemhm
          -8 215 -181 147 hintmask 11100000
          -8 796 rmoveto
          -94 215 94 vlineto
          hintmask 11010000
          -181 -796 rmoveto
          -60 callsubr
          endchar
        </CharString>
        <CharString name="iogonek">
          -321 -205 73 153 15 callgsubr
          -6 90 -90 212 -180 147 hintmask 11100100
          26 hmoveto
          42 hlineto
          hintmask 11110000
          -47 -47 -27 -50 -38 -73 callsubr
          -7 67 rlineto
          -10 -25 -29 -6 -19 hhcurveto
          -15 -7 7 14 27 29 47 40 37 hvcurveto
          hintmask 11100100
          20 582 -147 hlineto
          77 248 rmoveto
          -67 -40 -60 -52 -51 36 -48 70 hvcurveto
          hintmask 11101000
          55 49 48 60 46 -38 57 -65 hvcurveto
          endchar
        </CharString>
        <CharString name="itilde">
          4 callsubr
          661 -56 callsubr
          26 147 hintmask 10101000
          -33 680 rmoveto
          29 24 20 10 20 hhcurveto
          hintmask 11001000
          44 36 -58 50 hhcurveto
          20 25 10 29 26 hvcurveto
          108 vlineto
          -34 -27 -24 -13 -20 hhcurveto
          hintmask 10011000
          -44 -34 57 -52 hhcurveto
          -19 -21 -8 -20 -24 hvcurveto
          59 -790 rmoveto
          -60 callsubr
          endchar
        </CharString>
        <CharString name="j">
          -332 -7 callsubr
          672 211 hstemhm
          -10 -17 callgsubr
          hintmask 11010000
          162 582 -100 callgsubr
          -65 833 rmoveto
          hintmask 11100000
          -83 callsubr
          endchar
        </CharString>
        <CharString name="jcircumflex">
          -332 -7 callsubr
          899 -20 hstem
          26 136 vstem
          -57 -4 callgsubr
          68 -264 -100 callgsubr
          endchar
        </CharString>
        <CharString name="k">
          -38 2 callsubr
          263 -20 hstemhm
          28 14 callsubr
          hintmask 11110000
          328 -26 callsubr
          hlineto
          hintmask 11101000
          -84 callsubr
          endchar
        </CharString>
        <CharString name="kcommaaccent">
          -38 -22 callgsubr
          76 -48 callsubr
          263 -20 hstemhm
          28 14 callsubr
          hintmask 11111000
          328 -26 callsubr
          hlineto
          hintmask 11110100
          -84 callsubr
          -300 -653 -78 callgsubr
        </CharString>
        <CharString name="kgreenlandic">
          -39 2 callsubr
          hstem
          27 155 vstem
          327 -26 callsubr
          250 -157 hlineto
          2 -43 0 -24 -164 vvcurveto
          -141 -1 -136 -6 -90 vhcurveto
          165 hlineto
          -3 102 -1 71 77 vvcurveto
          7 hlineto
          139 -250 rlineto
          171 hlineto
          -171 315 160 283 rlineto
          endchar
        </CharString>
        <CharString name="l">
          -322 21 -21 841 -20 hstem
          27 144 vstem
          26 841 -91 callgsubr
          endchar
        </CharString>
        <CharString name="lacute">
          -322 21 -21 841 -20 53 171 hstem
          27 144 vstem
          59 874 rmoveto
          91 hlineto
          108 171 rlineto
          -146 hlineto
          -86 -204 -91 callgsubr
          endchar
        </CharString>
        <CharString name="lcaron">
          -322 21 -21 640 201 hstem
          27 144 vstem
          26 841 -91 callgsubr
          30 -201 -54 callsubr
        </CharString>
        <CharString name="lcommaaccent">
          -322 -22 callgsubr
          76 -21 841 -20 hstem
          27 144 vstem
          26 841 -91 callgsubr
          -148 -896 -78 callgsubr
        </CharString>
        <CharString name="ldot">
          -84 21 -21 239 215 387 -20 hstem
          27 144 44 212 vstem
          26 841 -91 callgsubr
          141 -387 rmoveto
          -83 callgsubr
          endchar
        </CharString>
        <CharString name="less">
          -95 94 -21 540 -20 hstem
          16 292 rmoveto
          380 -219 rlineto
          128 vlineto
          -264 142 264 142 rlineto
          128 vlineto
          -380 -219 rlineto
          endchar
        </CharString>
        <CharString name="lessequal">
          20 callgsubr
          26 311 rmoveto
          400 96 -307 hlineto
          307 158 rlineto
          118 vlineto
          -400 -219 rlineto
          -245 vmoveto
          -96 400 96 vlineto
          endchar
        </CharString>
        <CharString name="logicalnot">
          113 205 -21 169 121 hstem
          478 122 vstem
          20 474 rmoveto
          -121 458 -169 122 290 vlineto
          endchar
        </CharString>
        <CharString name="lslash">
          -230 21 -21 841 -20 hstemhm
          -3 218 -144 144 -144 222 hintmask 11010000
          70 841 0 callgsubr
          -56 -234 vvcurveto
          hintmask 11100000
          -74 -25 rlineto
          -112 vlineto
          hintmask 11010000
          74 25 -1 -128 -1 -104 -3 -83 rlinecurve
          150 hlineto
          -1 48 0 26 289 vvcurveto
          hintmask 11001000
          78 27 rlineto
          112 vlineto
          -77 -26 1 127 3 120 5 118 rlinecurve
          endchar
        </CharString>
        <CharString name="m">
          178 21 -21 370 239 -11 -20 hstemhm
          26 144 106 147 105 147 hintmask 10111100
          25 598 rmoveto
          -101 1 -155 -67 -68 -1 -127 -80 vvcurveto
          145 306 hlineto
          hintmask 11011100
          38 24 26 27 26 29 -23 -52 vhcurveto
          -295 147 315 vlineto
          38 27 24 27 26 25 -21 -49 vhcurveto
          -307 147 428 vlineto
          130 -48 51 -86 -57 -53 -23 -42 -24 vhcurveto
          45 -21 -43 20 -48 hhcurveto
          -50 -48 -22 -42 -27 hvcurveto
          hintmask 10111100
          53 vlineto
          endchar
        </CharString>
        <CharString name="macron">
          -150 702 94 hstem
          20 796 -48 callgsubr
        </CharString>
        <CharString name="minus">
          -25 284 119 hstem
          31 403 rmoveto
          -119 433 119 vlineto
          endchar
        </CharString>
        <CharString name="mu">
          -52 6 callgsubr
          32 147 122 140 hintmask 11011100
          32 -66 callgsubr
        </CharString>
        <CharString name="multiply">
          -52 147 -21 435 -20 hstem
          366 126 rmoveto
          85 85 -133 132 133 133 -85 85 -133 -133 -131 132 -85 -85 131 -132 -131 -131 85 -85 131 131 rlineto
          endchar
        </CharString>
        <CharString name="n">
          -36 callgsubr
          -30 callgsubr
          hintmask 10111000
          -80 callgsubr
          hintmask 11011000
          -89 callgsubr
          hintmask 10111000
          54 vlineto
          endchar
        </CharString>
        <CharString name="nacute">
          -36 callgsubr
          72 191 -30 callgsubr
          hintmask 10111100
          -80 callgsubr
          hintmask 11011100
          -89 callgsubr
          hintmask 10111100
          54 vlineto
          -5 52 -94 callgsubr
        </CharString>
        <CharString name="napostrophe">
          -36 callgsubr
          62 201 -30 callgsubr
          hintmask 10111100
          -80 callgsubr
          hintmask 11011100
          -89 callgsubr
          hintmask 10111100
          54 vlineto
          -186 42 -54 callsubr
        </CharString>
        <CharString name="ncaron">
          -36 callgsubr
          268 -20 -30 callgsubr
          hintmask 10111100
          -80 callgsubr
          hintmask 11011100
          -89 callgsubr
          hintmask 10111100
          54 vlineto
          58 66 -90 callsubr
        </CharString>
        <CharString name="ncommaaccent">
          -63 -22 callgsubr
          76 -30 callsubr
          -30 callgsubr
          hintmask 11011100
          -80 callgsubr
          hintmask 11101100
          -89 callgsubr
          hintmask 11011100
          54 vlineto
          -3 -653 -78 callgsubr
        </CharString>
        <CharString name="ndotaccent">
          -36 callgsubr
          77 172 hstemhm
          25 145 -28 172 -27 147 hintmask 10111010
          -80 callgsubr
          hintmask 11011010
          -89 callgsubr
          hintmask 10111010
          54 vlineto
          hintmask 11010100
          -28 142 -85 callsubr
        </CharString>
        <CharString name="nine">
          59 21 -21 281 179 192 178 hstem
          4 196 170 191 vstem
          337 hmoveto
          139 142 85 230 163 vvcurveto
          203 -132 92 -134 -141 -150 -105 -197 -100 58 -147 175 26 45 4 12 28 vhcurveto
          -41 -100 -71 -94 -101 -103 rrcurveto
          161 460 rmoveto
          -58 -26 47 48 46 25 51 61 58 26 -44 -51 -58 -33 -39 -53 hvcurveto
          endchar
        </CharString>
        <CharString name="notequal">
          -29 4 -21 165 146 102 146 154 -20 hstem
          28 542 rmoveto
          -31 callsubr
          187 hlineto
          -36 -102 rlineto
          -151 hlineto
          -31 callsubr
          99 hlineto
          -59 -165 rlineto
          92 hlineto
          60 165 rlineto
          243 -35 callgsubr
          -189 hlineto
          37 102 rlineto
          152 -35 callgsubr
          -98 hlineto
          56 154 rlineto
          -98 hlineto
          -55 -154 rlineto
          endchar
        </CharString>
        <CharString name="ntilde">
          -36 callgsubr
          83 100 -42 42 -42 99 -30 callgsubr
          hintmask 10110011
          -80 callgsubr
          hintmask 11010011
          -89 callgsubr
          hintmask 10101011
          54 vlineto
          -124 82 -64 callgsubr
          hintmask 11010011
          -91 callsubr
          hintmask 11000111
          -79 callsubr
        </CharString>
        <CharString name="numbersign">
          151 21 -21 246 106 128 106 232 -20 hstem
          47 586 rmoveto
          -106 137 vlineto
          -25 -128 rlineto
          -142 -106 121 hlineto
          -48 -246 rlineto
          98 hlineto
          51 246 rlineto
          118 hlineto
          -48 -246 rlineto
          99 hlineto
          51 246 rlineto
          165 106 -143 hlineto
          26 128 rlineto
          147 106 -125 hlineto
          48 232 rlineto
          -107 hlineto
          -46 -232 rlineto
          -115 hlineto
          48 232 rlineto
          -106 hlineto
          -46 -232 rlineto
          82 -106 rmoveto
          116 hlineto
          -25 -128 rlineto
          -117 hlineto
          endchar
        </CharString>
        <CharString name="o">
          -51 callgsubr
          hstem
          12 146 163 146 vstem
          -104 callgsubr
          endchar
        </CharString>
        <CharString name="oacute">
          -51 callgsubr
          41 191 hstem
          12 146 163 146 vstem
          -104 callgsubr
          -63 426 -94 callgsubr
        </CharString>
        <CharString name="obreve">
          -51 callgsubr
          64 -23 callgsubr
          12 146 -64 64 163 65 -65 146 hintmask 11011001
          -104 callgsubr
          77 593 rmoveto
          hintmask 11101010
          -51 callsubr
          hintmask 11010110
          -90 callgsubr
        </CharString>
        <CharString name="ocircumflex">
          -51 callgsubr
          237 -20 hstem
          12 146 163 146 vstem
          -104 callgsubr
          -171 509 -96 callgsubr
        </CharString>
        <CharString name="odieresis">
          -51 callgsubr
          58 146 hstemhm
          12 146 -84 -29 callgsubr
          -85 146 hintmask 11110010
          -104 callgsubr
          hintmask 11101100
          -166 516 -102 callgsubr
        </CharString>
        <CharString name="odotbelow">
          -41 -40 callgsubr
          41 235 187 198 hstem
          12 146 7 150 6 146 vstem
          -104 callgsubr
          -276 vmoveto
          -95 callgsubr
        </CharString>
        <CharString name="oe">
          279 -11 229 -210 -21 328 107 -11 198 -108 108 hstemhm
          12 146 hintmask 10010100
          240 609 rmoveto
          -164 -64 -110 -200 -201 64 -109 164 76 55 23 47 37 hvcurveto
          hintmask 01101100
          -51 53 65 -21 65 hhcurveto
          66 58 13 25 51 hvcurveto
          2 27 1 32 40 vvcurveto
          40 -1 46 -2 38 vhcurveto
          hintmask 10101100
          -14 -32 -58 -16 -43 hhcurveto
          -70 -39 40 57 -17 hvcurveto
          280 hlineto
          88 -6 63 -38 53 vhcurveto
          hintmask 10010100
          56 -40 -67 34 -79 hhcurveto
          -57 -53 -25 -43 -42 hvcurveto
          45 -37 -53 23 -75 hhcurveto
          -385 vmoveto
          -55 -27 46 47 48 27 46 55 54 27 -46 -48 -47 -27 -46 -54 hvcurveto
          hintmask 10101100
          324 277 -3 callsubr
        </CharString>
        <CharString name="ogonek">
          -228 -205 73 -73 205 hstemhm
          50 90 hintmask 10100000
          235 -76 callsubr
          hvcurveto
          hintmask 01100000
          27 29 47 40 37 vhcurveto
          -85 hlineto
          -47 -47 -27 -50 -38 -73 callsubr
          endchar
        </CharString>
        <CharString name="ograve">
          -51 callgsubr
          41 191 hstem
          12 146 163 146 vstem
          -104 callgsubr
          -10 617 -81 callsubr
        </CharString>
        <CharString name="ohungarumlaut">
          -51 callgsubr
          41 191 hstem
          12 146 163 146 vstem
          -104 callgsubr
          -125 426 -72 callgsubr
        </CharString>
        <CharString name="omacron">
          -51 callgsubr
          93 94 hstem
          12 146 163 146 vstem
          -104 callgsubr
          -157 572 -48 callgsubr
        </CharString>
        <CharString name="one">
          -130 0 247 581 -20 hstem
          131 157 vstem
          24 794 rmoveto
          -2 -29 -1 -63 -29 vvcurveto
          -29 1 -29 2 -29 vhcurveto
          106 13 rlineto
          -101 1 -140 -111 vvcurveto
          -83 hlineto
          -2 -41 -2 -41 -42 vvcurveto
          -41 2 -41 2 -41 vhcurveto
          324 hlineto
          2 41 1 41 41 vvcurveto
          42 -1 41 -2 41 vhcurveto
          -84 hlineto
          268 2 143 7 170 vhcurveto
          endchar
        </CharString>
        <CharString name="onehalf">
          223 -21 -21 42 14 callgsubr
          -109 -1 callgsubr
          20 -34 callsubr
          273 113 26 131 hintmask 1101101011000000
          480 -52 callsubr
          -526 58 -57 callsubr
          hintmask 1101100111000000
          -71 callsubr
          hintmask 1101101011000000
          -42 callgsubr
          hintmask 1101110011000000
          -26 callgsubr
          538 -519 rmoveto
          hintmask 1110110011000000
          -87 callgsubr
          endchar
        </CharString>
        <CharString name="oneinferior">
          -258 0 -1 callgsubr
          24 -34 callsubr
          hintmask 11010000
          27 479 -65 callsubr
        </CharString>
        <CharString name="onequarter">
          223 -21 -21 63 -21 99 133 164 -1 callgsubr
          21 -34 callsubr
          396 111 hintmask 1111101010000000
          491 -52 callsubr
          -536 58 -57 callsubr
          hintmask 1111100110000000
          -71 callsubr
          hintmask 1111101010000000
          -42 callgsubr
          hintmask 1111110010000000
          -26 callgsubr
          358 -404 -71 callgsubr
        </CharString>
        <CharString name="onesuperior">
          -268 396 -1 callgsubr
          20 -34 callsubr
          hintmask 11010000
          23 875 -65 callsubr
        </CharString>
        <CharString name="onethird">
          223 13 callgsubr
          -1 callgsubr
          22 -34 callsubr
          413 130 hintmask 1110110101000000
          489 -52 callsubr
          -533 58 -57 callsubr
          hintmask 1110110011000000
          -71 callsubr
          hintmask 1110110101000000
          -42 callgsubr
          hintmask 1110111001000000
          -26 callgsubr
          319 -673 rmoveto
          1 7 8 0 5 hhcurveto
          59 10 -26 -24 -38 -28 -17 -33 -30 -36 17 23 -15 hvcurveto
          -2 -19 0 -25 -24 vvcurveto
          -22 0 -20 2 -21 vhcurveto
          -24 26 47 -10 39 hhcurveto
          75 85 40 106 85 -51 33 -41 6 hvcurveto
          38 14 43 49 62 vvcurveto
          hintmask 1111011001000000
          78 -69 39 -73 -31 -52 -7 -32 -23 vhcurveto
          -1 -21 0 -2 -23 vvcurveto
          -24 0 -17 1 -20 vhcurveto
          24 16 32 16 28 hhcurveto
          35 21 -26 -25 -25 -19 -25 -46 -8 -9 1 1 -9 hvcurveto
          -1 -12 -1 -13 -12 vvcurveto
          -15 0 -12 1 -14 vhcurveto
          endchar
        </CharString>
        <CharString name="oogonek">
          -40 -205 73 543 198 hstemhm
          13 146 -18 90 91 146 hintmask 11011000
          326 -76 callsubr
          26 25 43 37 36 hvcurveto
          124 21 51 106 178 vvcurveto
          200 -64 110 -163 vhcurveto
          hintmask 11101000
          -164 -64 -110 -200 -186 55 -107 138 -15 hvcurveto
          hintmask 11011000
          -42 -44 -23 -46 -36 -73 callsubr
          -92 407 rmoveto
          hintmask 11101000
          -55 -27 46 47 48 27 46 55 54 27 -46 -48 -47 -27 -46 -54 hvcurveto
          endchar
        </CharString>
        <CharString name="ordfeminine">
          -150 488 149 134 90 hstem
          10 105 124 105 vstem
          346 854 rmoveto
          -108 -30 hlineto
          23 -23 -31 14 -30 hhcurveto
          -78 -66 -88 -105 -100 60 -80 75 30 33 13 24 30 hvcurveto
          -30 105 vlineto
          -228 206 rmoveto
          42 26 28 39 37 22 -25 -40 -43 -25 -26 -39 -38 -22 24 40 vhcurveto
          endchar
        </CharString>
        <CharString name="ordmasculine">
          -200 489 119 163 90 hstem
          12 88 120 88 vstem
          160 861 rmoveto
          -96 -52 -66 -120 -114 53 -72 95 98 50 73 113 120 -54 66 -94 hvcurveto
          -253 vmoveto
          -41 -19 43 39 38 19 43 41 41 19 -43 -38 -39 -19 -43 -41 hvcurveto
          endchar
        </CharString>
        <CharString name="oslash">
          8 callsubr
          hstemhm
          23 146 163 146 hintmask 01101100
          -21 callsubr
          hintmask 10011100
          -22 callsubr
          hintmask 10101100
          41 -37 -52 21 -71 hhcurveto
          -82 -292 -49 callsubr
        </CharString>
        <CharString name="oslashacute">
          8 callsubr
          72 191 hstemhm
          23 146 163 146 hintmask 01101110
          -21 callsubr
          hintmask 10011110
          -22 callsubr
          hintmask 10101110
          41 -37 -52 21 -71 hhcurveto
          -63 41 rmoveto
          91 -28 callsubr
          191 rlineto
          -146 hlineto
          -92 -524 -49 callsubr
        </CharString>
        <CharString name="otilde">
          -51 callgsubr
          52 -56 callsubr
          12 146 163 146 hintmask 11010110
          -104 callgsubr
          -182 456 -64 callgsubr
          hintmask 11100110
          -91 callsubr
          hintmask 11001110
          -79 callsubr
        </CharString>
        <CharString name="p">
          10 callsubr
          139 -139 151 hstemhm
          25 -1 callsubr
          hintmask 11011100
          23 -34 callgsubr
          hintmask 11101100
          49 -137 vlineto
          137 -236 -64 callsubr
          endchar
        </CharString>
        <CharString name="paragraph">
          7 -52 -21 820 71 hstem
          265 80 60 80 vstem
          345 -73 rmoveto
          820 60 -820 80 891 -220 vlineto
          -180 -70 -113 -113 -123 70 -123 180 hvcurveto
          -419 vlineto
          endchar
        </CharString>
        <CharString name="parenleft">
          -278 -93 -21 1009 -20 hstem
          15 118 vstem
          132 895 rmoveto
          -74 -152 -43 -183 -175 vvcurveto
          -175 43 -180 74 -144 vhcurveto
          112 34 rlineto
          -73 145 -38 173 161 vvcurveto
          160 37 165 74 137 vhcurveto
          endchar
        </CharString>
        <CharString name="parenright">
          -278 -93 -21 1009 -20 hstem
          109 118 vstem
          -2 861 rmoveto
          74 -137 37 -165 -160 vvcurveto
          -161 -38 -173 -73 -145 vhcurveto
          112 -34 rlineto
          74 144 43 180 175 vvcurveto
          175 -43 183 -74 152 vhcurveto
          endchar
        </CharString>
        <CharString name="percent">
          141 -5 callgsubr
          16 80 121 79 68 80 121 79 hintmask 0111011111000000
          185 9 callsubr
          hintmask 1011101111000000
          65 830 -82 callgsubr
          350 -130 -82 callgsubr
          endchar
        </CharString>
        <CharString name="period">
          -287 -11 215 hstem
          11 212 vstem
          118 204 rmoveto
          -83 callgsubr
          endchar
        </CharString>
        <CharString name="periodcentered">
          -285 239 215 hstem
          12 212 vstem
          119 454 rmoveto
          -83 callgsubr
          endchar
        </CharString>
        <CharString name="perthousand">
          451 -5 callgsubr
          17 80 121 79 68 80 121 79 30 80 121 79 hintmask 0111011111110000
          186 9 callsubr
          hintmask 1011101111110000
          65 830 -82 callgsubr
          350 -130 -82 callgsubr
          312 298 -82 callgsubr
          endchar
        </CharString>
        <CharString name="plus">
          -33 118 -21 187 120 186 -20 hstem
          183 120 vstem
          183 97 rmoveto
          120 187 167 120 -167 186 -120 -186 -166 -120 166 hlineto
          endchar
        </CharString>
        <CharString name="plusminus">
          -53 73 120 190 120 126 -20 hstem
          173 120 vstem
          173 256 rmoveto
          120 127 147 120 -147 126 -120 -126 -146 -120 146 hlineto
          -146 -190 rmoveto
          -120 413 120 vlineto
          endchar
        </CharString>
        <CharString name="q">
          18 10 callsubr
          151 -11 4 callgsubr
          hintmask 11011100
          -67 callgsubr
          hintmask 11101100
          -102 callsubr
          -230 137 vlineto
          hintmask 11011100
          -308 542 rmoveto
          hintmask 11101100
          -92 callsubr
          endchar
        </CharString>
        <CharString name="question">
          -58 -11 215 446 191 hstemhm
          90 212 -59 24 -24 203 hintmask 11010000
          267 299 rmoveto
          hintmask 11001000
          3 141 176 -1 195 vvcurveto
          175 -140 32 -94 -81 -70 -24 -40 -37 vhcurveto
          -2 -35 -1 -26 -36 vvcurveto
          -38 1 -37 2 -29 vhcurveto
          38 25 40 36 60 hhcurveto
          32 62 -10 -74 hvcurveto
          hintmask 11010000
          -107 -129 -12 -1 -148 vhcurveto
          84 -95 rmoveto
          hintmask 11100000
          -83 callgsubr
          endchar
        </CharString>
        <CharString name="questiondown">
          -61 -192 191 446 215 hstemhm
          15 203 -59 212 -177 24 hintmask 11001000
          194 350 rmoveto
          hintmask 11100000
          -3 -141 -176 1 -195 vvcurveto
          -175 140 -32 94 81 70 24 40 37 vhcurveto
          2 35 1 26 36 vvcurveto
          38 -1 37 -2 29 vhcurveto
          -38 -25 -40 -36 -60 hhcurveto
          -32 -62 10 74 hvcurveto
          hintmask 11001000
          107 129 12 1 148 vhcurveto
          -84 95 rmoveto
          hintmask 11010000
          69 38 60 54 11 callsubr
          hvcurveto
          endchar
        </CharString>
        <CharString name="quotedbl">
          -172 562 -21 300 -20 hstem
          25 116 66 116 vstem
          36 541 -2 callsubr
          204 -300 -2 callsubr
          endchar
        </CharString>
        <CharString name="quotedblbase">
          -57 -135 -12 callsubr
          58 rmoveto
          -74 callgsubr
          hintmask 11100100
          -33 callgsubr
          242 hmoveto
          -74 callgsubr
          hintmask 11101000
          -33 callgsubr
          endchar
        </CharString>
        <CharString name="quotedblleft">
          -64 525 -21 336 -20 hstemhm
          9 127 -127 196 46 127 -127 196 hintmask 11101000
          204 625 rmoveto
          -53 callgsubr
          hintmask 11011000
          -2 callgsubr
          242 hmoveto
          -53 callgsubr
          hintmask 11100100
          -2 callgsubr
          endchar
        </CharString>
        <CharString name="quotedblright">
          -63 525 -12 callsubr
          718 rmoveto
          -74 callgsubr
          hintmask 11100100
          -33 callgsubr
          242 hmoveto
          -74 callgsubr
          hintmask 11101000
          -33 callgsubr
          endchar
        </CharString>
        <CharString name="quoteleft">
          -306 526 -21 336 -20 hstemhm
          9 127 -127 196 hintmask 11100000
          204 626 rmoveto
          -53 callgsubr
          hintmask 11010000
          -2 callgsubr
          endchar
        </CharString>
        <CharString name="quoteright">
          -305 526 -21 336 -20 hstemhm
          11 196 -127 127 hintmask 11010000
          12 719 rmoveto
          -74 callgsubr
          hintmask 11100000
          -33 callgsubr
          endchar
        </CharString>
        <CharString name="quotesinglbase">
          -292 -153 -21 378 -20 hstem
          60 155 vstem
          3 113 rmoveto
          -53 callsubr
          -53 -44 -36 -55 -14 vhcurveto
          endchar
        </CharString>
        <CharString name="quotesingle">
          -354 562 -21 300 -20 hstem
          25 116 vstem
          36 541 -2 callsubr
          endchar
        </CharString>
        <CharString name="r">
          -206 21 21 callgsubr
          hintmask 11010000
          -78 callsubr
          hintmask 10110000
          -43 callsubr
          hintmask 11010000
          -7 76 rlineto
          endchar
        </CharString>
        <CharString name="racute">
          -206 2 callsubr
          31 -20 61 191 -32 callsubr
          hintmask 11011000
          -78 callsubr
          hintmask 10111000
          -43 callsubr
          hintmask 11011000
          -7 76 rlineto
          -44 52 -94 callgsubr
        </CharString>
        <CharString name="rcaron">
          -206 2 callsubr
          31 -20 257 -20 -32 callsubr
          hintmask 11011000
          -78 callsubr
          hintmask 10111000
          -43 callsubr
          hintmask 11011000
          -7 76 rlineto
          19 66 -90 callsubr
        </CharString>
        <CharString name="rcommaaccent">
          -206 -22 callgsubr
          76 21 callgsubr
          hintmask 11101000
          -78 callsubr
          hintmask 11011000
          -43 callsubr
          hintmask 11101000
          -7 76 rlineto
          -103 -653 -78 callgsubr
        </CharString>
        <CharString name="rdotbelow">
          -206 -205 153 73 21 callgsubr
          -147 161 hintmask 11101000
          -78 callsubr
          hintmask 11011000
          -43 callsubr
          hintmask 11100100
          -7 76 rlineto
          -42 -650 rmoveto
          -95 callgsubr
        </CharString>
        <CharString name="registered">
          131 225 76 81 174 212 73 hstem
          22 83 125 75 59 82 102 81 vstem
          328 225 rmoveto
          196 105 142 175 174 -104 125 -195 -193 -115 -123 -178 -173 108 -142 198 hvcurveto
          6 76 rmoveto
          -152 -77 111 130 133 81 93 145 152 65 -101 -129 -126 -62 -111 -152 hvcurveto
          -26 81 rmoveto
          -2 39 -1 39 42 vvcurveto
          24 hlineto
          48 -120 rlineto
          74 hlineto
          -56 133 rlineto
          33 14 18 27 50 vvcurveto
          85 -63 17 -76 -28 -24 -1 -3 -26 vhcurveto
          1 -58 0 -56 -63 vvcurveto
          -44 0 -52 -1 -49 vhcurveto
          74 248 rmoveto
          19 hlineto
          23 19 -8 -26 -34 -27 -6 -24 hvcurveto
          -10 hlineto
          endchar
        </CharString>
        <CharString name="ring">
          -280 650 48 101 46 hstem
          18 51 102 51 vstem
          121 698 rmoveto
          -79 callgsubr
          endchar
        </CharString>
        <CharString name="s">
          -137 -11 -16 callsubr
          hstemhm
          10 216 -37 189 hintmask 11100000
          82 561 rmoveto
          -52 -42 -20 -60 -56 vvcurveto
          -95 60 -34 51 -26 vhcurveto
          hintmask 11010000
          27 -14 41 -21 -31 vvcurveto
          -18 -15 -12 -27 -36 -52 20 13 -29 vhcurveto
          -6 -24 -3 -48 -25 vvcurveto
          -25 3 -27 6 -23 vhcurveto
          -18 40 60 -6 38 hhcurveto
          96 114 47 117 67 -38 38 -36 24 hvcurveto
          hintmask 11100000
          -31 20 -47 25 28 vvcurveto
          17 19 5 24 32 39 -10 -1 6 vhcurveto
          1 14 2 12 40 vvcurveto
          28 -1 50 -2 81 vhcurveto
          11 -35 -39 7 -38 hhcurveto
          -53 -54 -12 -36 -45 hvcurveto
          endchar
        </CharString>
        <CharString name="sacute">
          -137 -11 -16 callsubr
          41 191 -104 callsubr
          62 89 -94 callgsubr
        </CharString>
        <CharString name="scaron">
          -137 -11 -16 callsubr
          237 -20 -104 callsubr
          125 103 rmoveto
          hintmask 11101000
          171 114 -30 68 -141 -69 -141 69 -30 -68 rlineto
          endchar
        </CharString>
        <CharString name="schwa">
          2 -11 108 79 107 97 231 hstem
          56 79 rmoveto
          -56 40 67 -34 79 hhcurveto
          38 37 8 15 33 hvcurveto
          113 51 50 133 107 vvcurveto
          72 -23 120 -102 68 vhcurveto
          37 -57 -64 11 -59 hhcurveto
          -66 -58 -13 -25 -51 hvcurveto
          -2 -27 -1 -32 -40 vvcurveto
          -40 1 -46 2 -38 vhcurveto
          14 32 58 16 43 hhcurveto
          70 39 -41 -56 17 hvcurveto
          -280 hlineto
          -88 6 -63 38 -53 vhcurveto
          179 18 rmoveto
          -30 -31 26 53 -5 hvcurveto
          131 hlineto
          -59 -8 -29 -20 -28 hhcurveto
          endchar
        </CharString>
        <CharString name="scircumflex">
          -137 -11 -16 callsubr
          237 -20 -104 callsubr
          -46 172 rmoveto
          30 -68 141 68 141 -68 rlineto
          hintmask 11101000
          30 68 -171 113 rlineto
          endchar
        </CharString>
        <CharString name="sdotbelow">
          -137 -40 callgsubr
          41 -16 callsubr
          hstemhm
          10 216 -116 150 -71 189 hintmask 11110000
          82 561 rmoveto
          -52 -42 -20 -60 -56 vvcurveto
          -95 60 -34 51 -26 vhcurveto
          hintmask 11100100
          27 -14 41 -21 -31 vvcurveto
          -18 -15 -12 -27 -36 -52 20 13 -29 vhcurveto
          -6 -24 -3 -48 -25 vvcurveto
          -25 3 -27 6 -23 vhcurveto
          -18 40 60 -6 38 hhcurveto
          96 114 47 117 67 -38 38 -36 24 hvcurveto
          hintmask 11110000
          -31 20 -47 25 28 vvcurveto
          17 19 5 24 32 39 -10 -1 6 vhcurveto
          1 14 2 12 40 vvcurveto
          28 -1 50 -2 81 vhcurveto
          11 -35 -39 7 -38 hhcurveto
          -53 -54 -12 -36 -45 hvcurveto
          103 -613 rmoveto
          hintmask 11101000
          -95 callgsubr
        </CharString>
        <CharString name="section">
          -93 -121 163 584 163 hstemhm
          19 126 -114 190 -15 201 -131 131 hintmask 11101000
          407 369 rmoveto
          hintmask 11010100
          172 -186 -24 77 vvcurveto
          21 14 11 26 28 45 -13 -20 46 vhcurveto
          3 16 3 37 29 vvcurveto
          34 -4 31 -8 25 vhcurveto
          14 -33 -56 10 -48 hhcurveto
          -123 -83 -64 -98 -59 27 -41 77 -47 hvcurveto
          hintmask 11101000
          -72 -29 -44 -69 -81 -175 187 24 -76 vvcurveto
          -21 -15 -11 -25 -28 -47 13 20 -44 vhcurveto
          -4 -16 -2 -37 -29 vvcurveto
          -34 4 -31 8 -25 vhcurveto
          -14 31 57 -10 49 hhcurveto
          121 85 64 95 60 -30 44 -74 45 hvcurveto
          72 32 43 69 81 vvcurveto
          -197 -116 rmoveto
          -38 -27 30 44 44 27 31 39 hvcurveto
          hintmask 11100100
          38 27 -31 -44 -43 -27 -31 -39 hvcurveto
          endchar
        </CharString>
        <CharString name="semicolon">
          -259 -154 -21 378 191 0 215 hstemhm
          23 212 -155 155 hintmask 11010000
          23 112 rmoveto
          hintmask 11001000
          -53 callsubr
          vhcurveto
          hintmask 10110000
          -53 -44 -36 -55 -14 hvcurveto
          107 497 rmoveto
          -83 callgsubr
          endchar
        </CharString>
        <CharString name="seven">
          -33 21 -21 612 206 hstem
          257 hmoveto
          36 172 115 311 67 144 rrcurveto
          5 46 1 37 22 vvcurveto
          29 -2 33 -4 24 vhcurveto
          -458 hlineto
          -4 -32 -3 -42 -37 vvcurveto
          -39 3 -34 4 -27 vhcurveto
          288 10 -270 -617 rlineto
          endchar
        </CharString>
        <CharString name="six">
          60 -11 209 192 147 281 -20 hstem
          18 193 170 194 vstem
          242 -36 callsubr
          -139 -142 -85 -229 -164 vvcurveto
          -202 132 -92 134 141 150 104 197 67 -20 74 -62 52 vhcurveto
          28 -33 -55 26 -63 hhcurveto
          -27 -44 -4 -11 -28 hvcurveto
          43 100 69 93 100 103 rrcurveto
          -158 -428 rmoveto
          58 26 -47 -48 -46 -25 -51 -61 -58 -26 44 51 58 33 39 53 hvcurveto
          endchar
        </CharString>
        <CharString name="slash">
          -72 -23 -21 862 -20 hstem
          321 -36 callsubr
          -308 -862 rlineto
          116 hlineto
          308 862 rlineto
          endchar
        </CharString>
        <CharString name="space">
          -396 endchar
        </CharString>
        <CharString name="sterling">
          -85 -11 227 -169 169 142 108 137 227 hstemhm
          73 135 hintmask 01111000
          28 466 rmoveto
          -108 45 -94 vlineto
          -13 -4 -14 -7 -15 -8 rrcurveto
          -3 -33 -2 -49 -48 vvcurveto
          -41 2 -39 3 -27 vhcurveto
          28 34 29 11 28 hhcurveto
          hintmask 10111000
          64 51 -58 71 hhcurveto
          29 35 10 28 38 hvcurveto
          4 28 2 41 42 vvcurveto
          47 -3 47 -5 31 vhcurveto
          -34 -39 -32 -13 -28 hhcurveto
          -37 -31 18 16 -33 hvcurveto
          108 111 108 -111 73 vlineto
          48 41 16 43 36 39 -11 -12 20 vhcurveto
          6 31 2 45 43 vvcurveto
          42 -2 39 -4 20 vhcurveto
          25 -38 -57 5 -36 hhcurveto
          -72 -55 -20 -53 -32 hvcurveto
          -23 -38 -3 -50 -79 vvcurveto
          -124 vlineto
          endchar
        </CharString>
        <CharString name="t">
          -217 -8 -27 callsubr
          hintmask 11110000
          -87 callsubr
          hintmask 11101000
          -45 callsubr
          endchar
        </CharString>
        <CharString name="tbar">
          -206 -8 132 133 112 83 146 116 -20 hstemhm
          83 138 -138 216 hintmask 11111000
          86 598 rmoveto
          -80 -146 80 -83 -90 -112 87 -100 hlineto
          -82 21 -83 96 -13 callsubr
          vhcurveto
          hintmask 11110100
          1 8 0 23 25 vvcurveto
          29 0 34 -2 9 vhcurveto
          -3 -8 -20 -1 -9 hhcurveto
          hintmask 11111000
          -12 callgsubr
          65 89 112 -89 83 81 146 -79 116 -137 vlineto
          endchar
        </CharString>
        <CharString name="tcaron">
          -217 -8 132 474 -20 62 201 hstemhm
          71 139 -139 218 hintmask 11110000
          -87 callsubr
          hintmask 11101000
          -45 callsubr
          219 -74 -54 callsubr
        </CharString>
        <CharString name="tdotbelow">
          -217 -40 callgsubr
          44 -27 callsubr
          -183 150 hintmask 11111000
          -87 callsubr
          hintmask 11110100
          -45 callsubr
          106 -766 rmoveto
          hintmask 11110010
          -95 callgsubr
        </CharString>
        <CharString name="thorn">
          18 10 callsubr
          151 232 -20 hstem
          26 -1 callsubr
          vstem
          24 -34 callgsubr
          293 -137 vlineto
          137 -480 -64 callsubr
          endchar
        </CharString>
        <CharString name="three">
          -27 -11 211 169 117 167 177 hstemhm
          256 199 -199 219 hintmask 11101000
          110 368 rmoveto
          1 11 12 0 10 hhcurveto
          98 15 -39 -37 -65 -46 -28 -53 -53 -59 27 40 -25 hvcurveto
          -2 -32 -1 -41 -39 vvcurveto
          -39 1 -32 2 -35 vhcurveto
          -41 43 80 -19 64 hhcurveto
          126 142 70 177 132 -87 50 -67 9 hvcurveto
          hintmask 11110000
          63 25 71 81 102 vvcurveto
          131 -116 64 -120 -52 -88 -12 -52 -36 vhcurveto
          -2 -35 -2 -5 -37 vvcurveto
          -40 1 -30 3 -32 vhcurveto
          37 25 54 29 47 hhcurveto
          59 34 -43 -42 -42 -33 -40 -76 -12 -15 1 3 -16 hvcurveto
          -2 -20 -1 -19 -19 vvcurveto
          -22 1 -21 2 -21 vhcurveto
          endchar
        </CharString>
        <CharString name="threeinferior">
          -212 -7 19 callsubr
          160 130 vstem
          71 222 -98 callgsubr
          endchar
        </CharString>
        <CharString name="threequarters">
          220 -21 -21 63 -21 99 133 157 19 callsubr
          161 130 284 111 vstem
          498 -52 callsubr
          -495 -199 -98 callgsubr
          470 -127 -71 callgsubr
        </CharString>
        <CharString name="threesuperior">
          -219 389 19 callsubr
          158 130 vstem
          69 618 -98 callgsubr
          endchar
        </CharString>
        <CharString name="tilde">
          -101 661 -56 callsubr
          hintmask 01000000
          20 680 -64 callgsubr
          hintmask 10000000
          -91 callsubr
          hintmask 00100000
          -79 callsubr
        </CharString>
        <CharString name="trademark">
          205 425 -21 338 99 hstemhm
          37 250 -173 94 102 84 204 91 hintmask 11101100
          594 404 rmoveto
          96 hlineto
          -1 83 0 83 84 vvcurveto
          61 0 62 1 64 vhcurveto
          -112 hlineto
          -80 -255 -69 255 rlineto
          -121 hlineto
          1 -78 1 -78 -79 vvcurveto
          -66 -1 -67 -1 -69 vhcurveto
          86 275 hlineto
          73 -251 rlineto
          59 hlineto
          77 258 rlineto
          -316 155 rmoveto
          -250 -99 hlineto
          hintmask 11011100
          77 -338 94 338 hlineto
          hintmask 11101100
          79 hlineto
          endchar
        </CharString>
        <CharString name="two">
          -35 0 247 376 207 hstem
          18 175 56 218 vstem
          467 615 rmoveto
          170 -149 45 -99 -44 -91 -11 -53 -37 vhcurveto
          -3 -34 -1 -27 -39 vvcurveto
          -39 1 -42 3 -32 vhcurveto
          40 25 47 30 46 hhcurveto
          35 49 -22 -54 hvcurveto
          -123 -231 -14 -222 vvcurveto
          -188 440 vlineto
          2 41 1 42 41 vvcurveto
          42 -4 45 -3 41 vhcurveto
          -261 -10 rlineto
          9 130 265 25 218 vvcurveto
          endchar
        </CharString>
        <CharString name="twoinferior">
          -208 0 14 callgsubr
          hstem
          21 113 26 131 vstem
          291 376 rmoveto
          -87 callgsubr
          endchar
        </CharString>
        <CharString name="twosuperior">
          -212 396 14 callgsubr
          hstem
          18 113 26 131 vstem
          288 772 rmoveto
          -87 callgsubr
          endchar
        </CharString>
        <CharString name="twothirds">
          221 13 callgsubr
          14 callgsubr
          hstem
          20 113 26 131 305 130 vstem
          501 -52 callsubr
          -280 -45 rmoveto
          -87 callgsubr
          216 -550 -98 callgsubr
          endchar
        </CharString>
        <CharString name="u">
          -61 -11 12 callsubr
          120 142 hintmask 01111000
          -86 callgsubr
          hintmask 10111000
          -98 callsubr
          hintmask 01111000
          -53 vlineto
          endchar
        </CharString>
        <CharString name="uacute">
          -69 callsubr
          72 191 -93 callgsubr
          -120 650 -94 callgsubr
        </CharString>
        <CharString name="ubreve">
          -69 callsubr
          95 -23 callgsubr
          24 147 -86 69 137 142 -125 69 hintmask 0111010100000000
          -86 callgsubr
          hintmask 1011010100000000
          -98 callsubr
          hintmask 0110110100000000
          -53 vlineto
          hintmask 1010110010000000
          20 817 rmoveto
          hintmask 1011010100000000
          -51 callsubr
          hintmask 1010101010000000
          -90 callgsubr
        </CharString>
        <CharString name="ucircumflex">
          -69 callsubr
          268 -20 -93 callgsubr
          -228 733 -96 callgsubr
        </CharString>
        <CharString name="udieresis">
          -69 callsubr
          89 146 -32 callsubr
          -106 -29 callgsubr
          -106 142 hintmask 01111001
          -86 callgsubr
          hintmask 10111010
          -98 callsubr
          hintmask 01110101
          -53 vlineto
          -223 740 rmoveto
          -54 43 -19 32 39 29 31 42 41 -27 32 -42 -36 -38 -21 -52 vhcurveto
          hintmask 10111010
          189 1 rmoveto
          -55 43 -19 32 39 29 31 42 41 -27 32 -43 -35 -38 -21 -51 vhcurveto
          endchar
        </CharString>
        <CharString name="udotbelow">
          -61 -40 callgsubr
          41 12 callsubr
          -10 150 -20 142 hintmask 10111010
          -86 callgsubr
          hintmask 11011010
          -32 -35 -28 -33 -32 -20 25 40 vhcurveto
          300 -147 -428 vlineto
          -40 4 -39 5 -18 vhcurveto
          hintmask 11010100
          -48 15 55 -36 58 hhcurveto
          46 49 25 39 32 hvcurveto
          hintmask 10111010
          -53 vlineto
          -52 -52 rmoveto
          hintmask 11010100
          -95 callgsubr
        </CharString>
        <CharString name="ugrave">
          -69 callsubr
          72 191 -93 callgsubr
          -67 841 -81 callsubr
        </CharString>
        <CharString name="uhungarumlaut">
          -69 callsubr
          72 191 -93 callgsubr
          -182 650 -72 callgsubr
        </CharString>
        <CharString name="umacron">
          -69 callsubr
          124 94 -93 callgsubr
          -214 796 -48 callgsubr
        </CharString>
        <CharString name="underscore">
          180 -192 136 hstem
          31 -56 rmoveto
          -3 -23 0 -22 -23 vvcurveto
          -23 0 -24 3 -21 vhcurveto
          637 hlineto
          3 24 1 22 21 vvcurveto
          24 -1 22 -3 23 vhcurveto
          endchar
        </CharString>
        <CharString name="uni00A0">
          -396 endchar
        </CharString>
        <CharString name="uni00AD">
          -56 -58 callsubr
          409 hlineto
          27 2 26 26 27 -2 26 28 vvcurveto
          endchar
        </CharString>
        <CharString name="uni015E">
          -60 -205 151 43 -16 callgsubr
          hstem
          17 218 25 195 vstem
          -106 callsubr
          145 -670 -62 callgsubr
        </CharString>
        <CharString name="uni015F">
          -137 -205 151 43 -16 callsubr
          -104 callsubr
          49 -616 -62 callgsubr
        </CharString>
        <CharString name="uni0162">
          -101 -205 151 75 -21 633 185 hstem
          127 162 vstem
          -85 callgsubr
          -261 -688 -62 callgsubr
        </CharString>
        <CharString name="uni0163">
          -217 -205 151 46 -27 callsubr
          hintmask 11111000
          -87 callsubr
          hintmask 11110100
          -45 callsubr
          52 -769 -62 callgsubr
        </CharString>
        <CharString name="uni01C4">
          3 callsubr
          215 -20 hstemhm
          -21 callgsubr
          hintmask 01101110
          -58 callgsubr
          hintmask 10011110
          -103 callsubr
          hintmask 01101110
          917 -664 rmoveto
          -19 callsubr
          hintmask 10101110
          -97 callgsubr
          hintmask 01101110
          -17 callsubr
          256 863 -90 callsubr
        </CharString>
        <CharString name="uni01C5">
          566 -10 callsubr
          397 201 66 166 16 -20 hstemhm
          -21 callgsubr
          hintmask 01110110
          -58 callgsubr
          hintmask 10110110
          -103 callsubr
          hintmask 01110110
          846 -664 rmoveto
          -32 callgsubr
          hintmask 10110110
          -97 callsubr
          hintmask 01110110
          -33 callsubr
          224 664 rmoveto
          171 114 rlineto
          hintmask 10101110
          -30 68 -141 -69 -141 69 -30 -68 rlineto
          endchar
        </CharString>
        <CharString name="uni01C6">
          469 -10 callsubr
          397 212 -151 151 -11 -20 263 -20 25 4 callgsubr
          hintmask 1001010110000000
          514 841 rmoveto
          -142 -293 hlineto
          -102 callsubr
          hintmask 0101010110000000
          -74 callsubr
          766 -361 rmoveto
          -32 callgsubr
          hintmask 1000110110000000
          39 -3 37 -4 31 vhcurveto
          -243 hlineto
          240 212 rlineto
          4 45 1 28 21 vvcurveto
          30 -2 25 -3 24 vhcurveto
          -378 hlineto
          -4 -28 -3 -36 -37 vvcurveto
          hintmask 0110001110000000
          -20 callgsubr
          224 664 -90 callsubr
        </CharString>
        <CharString name="uni01C7">
          232 10 -21 658 171 hstem
          31 168 370 157 vstem
          30 -36 callsubr
          1 -76 0 -82 -86 vvcurveto
          -185 -2 -203 -4 -185 vhcurveto
          303 hlineto
          3 46 1 44 44 vvcurveto
          43 -1 42 -3 44 vhcurveto
          -137 -6 rlineto
          111 0 84 8 365 vhcurveto
          527 hmoveto
          -54 callgsubr
          endchar
        </CharString>
        <CharString name="uni01C8">
          51 10 callgsubr
          211 -12 -20 hstemhm
          32 168 173 -17 callgsubr
          hintmask 11011010
          -89 callsubr
          345 -236 -100 callgsubr
          hintmask 11101100
          -65 833 rmoveto
          -83 callsubr
          endchar
        </CharString>
        <CharString name="uni01C9">
          -107 10 callgsubr
          222 -11 -20 hstemhm
          27 144 44 -17 callgsubr
          hintmask 11101010
          26 841 -91 callgsubr
          206 -259 -100 callgsubr
          hintmask 11011100
          -65 833 rmoveto
          -67 -40 -60 -52 hvcurveto
          hintmask 11101100
          -51 36 -48 70 55 49 48 60 vhcurveto
          hintmask 11011100
          46 -38 57 -65 vhcurveto
          endchar
        </CharString>
        <CharString name="uni01CA">
          463 10 -6 callsubr
          647 171 8 callgsubr
          234 157 hintmask 01111100
          -103 callgsubr
          531 hmoveto
          -77 callsubr
          hintmask 10111100
          -70 callsubr
          endchar
        </CharString>
        <CharString name="uni01CB">
          281 10 callgsubr
          199 -199 211 8 callgsubr
          37 -17 callgsubr
          hintmask 11101101
          -103 callgsubr
          349 -236 -100 callgsubr
          hintmask 11011110
          -65 833 rmoveto
          -83 callsubr
          endchar
        </CharString>
        <CharString name="uni01CC">
          146 -7 callsubr
          74 -30 callsubr
          41 211 -30 callgsubr
          34 -17 callgsubr
          hintmask 1101111100000000
          -80 callgsubr
          hintmask 1110111100000000
          -89 callgsubr
          hintmask 1101111010000000
          54 vlineto
          470 -16 -100 callgsubr
          -65 833 rmoveto
          hintmask 1110111100000000
          -83 callsubr
          endchar
        </CharString>
        <CharString name="uni01F1">
          3 callsubr
          hstemhm
          -21 callgsubr
          hintmask 01101100
          -58 callgsubr
          hintmask 10011100
          -103 callsubr
          hintmask 01101100
          917 -664 rmoveto
          -19 callsubr
          hintmask 10101100
          -97 callgsubr
          hintmask 01101100
          -17 callsubr
          endchar
        </CharString>
        <CharString name="uni01F2">
          566 -10 callsubr
          397 201 66 166 hstemhm
          -21 callgsubr
          hintmask 01111100
          -58 callgsubr
          hintmask 10111100
          -103 callsubr
          hintmask 01111100
          846 -664 rmoveto
          -32 callgsubr
          hintmask 10111100
          -97 callsubr
          hintmask 01111100
          -33 callsubr
          endchar
        </CharString>
        <CharString name="uni01F3">
          469 -10 callsubr
          397 212 -151 151 -11 -20 263 4 callgsubr
          hintmask 10010111
          514 841 rmoveto
          -142 -293 hlineto
          -102 callsubr
          hintmask 01010111
          -74 callsubr
          766 -361 rmoveto
          -32 callgsubr
          hintmask 10001111
          39 -3 37 -4 31 vhcurveto
          -243 hlineto
          240 212 rlineto
          4 45 1 28 21 vvcurveto
          30 -2 25 -3 24 vhcurveto
          -378 hlineto
          -4 -28 -3 -36 -37 vvcurveto
          hintmask 01100111
          -20 callgsubr
          endchar
        </CharString>
        <CharString name="uni0218">
          -60 -22 callgsubr
          44 -16 callgsubr
          hstem
          17 218 25 195 vstem
          -106 callsubr
          138 -670 -78 callgsubr
        </CharString>
        <CharString name="uni0219">
          -137 -22 callgsubr
          44 -16 callsubr
          -104 callsubr
          42 -616 -78 callgsubr
        </CharString>
        <CharString name="uni021A">
          -101 -22 callgsubr
          76 -21 633 185 hstem
          127 162 vstem
          -85 callgsubr
          -268 -688 -78 callgsubr
        </CharString>
        <CharString name="uni021B">
          -217 -22 callgsubr
          47 -27 callsubr
          hintmask 11111000
          -87 callsubr
          hintmask 11110100
          -45 callsubr
          45 -769 -78 callgsubr
        </CharString>
        <CharString name="uni03BC">
          -59 6 callgsubr
          26 147 122 140 hintmask 11011100
          26 -66 callgsubr
        </CharString>
        <CharString name="uni2215">
          -149 -21 -21 897 -20 hstem
          285 -24 callgsubr
        </CharString>
        <CharString name="uni2219">
          -285 239 215 hstem
          12 212 vstem
          119 454 rmoveto
          -83 callgsubr
          endchar
        </CharString>
        <CharString name="uogonek">
          -61 -205 73 121 12 callsubr
          103 90 -73 142 hintmask 10111100
          459 -76 callsubr
          hvcurveto
          hintmask 10111010
          27 29 47 40 37 vhcurveto
          97 -1 168 50 vvcurveto
          85 4 110 2 88 vhcurveto
          -147 -305 hlineto
          hintmask 11011100
          -98 callsubr
          hintmask 10111100
          -53 60 vlineto
          -47 -47 -27 -50 -38 -73 callsubr
          endchar
        </CharString>
        <CharString name="uring">
          -69 callsubr
          72 48 101 46 -32 callsubr
          -43 43 120 41 -41 142 hintmask 0111110010000000
          -86 callgsubr
          hintmask 1011110100000000
          -98 callsubr
          hintmask 0111110010000000
          -53 vlineto
          -57 698 rmoveto
          -30 -22 21 30 30 22 20 30 30 20 -20 -30 -30 -20 -21 -30 hvcurveto
          -48 vmoveto
          hintmask 1011101100000000
          67 34 46 53 53 -34 43 -67 -67 -36 -43 -53 -53 36 -46 67 hvcurveto
          endchar
        </CharString>
        <CharString name="utilde">
          -69 callsubr
          83 -56 callsubr
          24 147 120 142 hintmask 01110011
          -86 callgsubr
          hintmask 10110011
          -98 callsubr
          hintmask 01101011
          -53 vlineto
          -239 680 -64 callgsubr
          hintmask 10110011
          -91 callsubr
          hintmask 10100111
          -79 callsubr
        </CharString>
        <CharString name="v">
          -64 2 callsubr
          hstem
          309 598 rmoveto
          -54 -318 rlineto
          -27 -5 -9 -15 -11 hhcurveto
          -13 -9 18 24 -4 hvcurveto
          -58 318 rlineto
          -149 hlineto
          137 -598 rlineto
          189 hlineto
          135 598 rlineto
          endchar
        </CharString>
        <CharString name="w">
          -8 callgsubr
          hstem
          -95 callsubr
          endchar
        </CharString>
        <CharString name="wacute">
          -8 callgsubr
          72 191 hstem
          -95 callsubr
          -412 52 -94 callgsubr
        </CharString>
        <CharString name="wcircumflex">
          -8 callgsubr
          268 -20 hstem
          -95 callsubr
          -520 135 -96 callgsubr
        </CharString>
        <CharString name="wdieresis">
          -8 callgsubr
          89 146 hstem
          183 15 callsubr
          -95 callsubr
          -515 142 -102 callgsubr
        </CharString>
        <CharString name="wgrave">
          -8 callgsubr
          72 191 hstem
          -95 callsubr
          -359 243 -81 callsubr
        </CharString>
        <CharString name="x">
          -72 2 callsubr
          hstem
          224 195 rmoveto
          8 17 -45 -43 16 hvcurveto
          40 -107 rlineto
          153 hlineto
          -131 300 129 298 rlineto
          -152 hlineto
          -37 -105 rlineto
          -46 -16 -16 -45 -11 hhcurveto
          -11 -15 45 46 -17 hvcurveto
          -38 105 rlineto
          -151 hlineto
          129 -298 -131 -300 rlineto
          153 hlineto
          40 107 rlineto
          43 16 17 45 8 hhcurveto
          endchar
        </CharString>
        <CharString name="y">
          -10 callgsubr
          hstem
          -88 callsubr
          endchar
        </CharString>
        <CharString name="yacute">
          -10 callgsubr
          72 191 hstem
          -88 callsubr
          -294 52 -94 callgsubr
        </CharString>
        <CharString name="ycircumflex">
          -10 callgsubr
          268 -20 hstem
          -88 callsubr
          -402 135 -96 callgsubr
        </CharString>
        <CharString name="ydieresis">
          -10 callgsubr
          89 146 hstem
          61 15 callsubr
          -88 callsubr
          -397 142 -102 callgsubr
        </CharString>
        <CharString name="yen">
          67 21 -21 161 109 72 108 368 -20 hstem
          208 168 vstem
          432 450 rmoveto
          139 368 rlineto
          -165 hlineto
          -113 -356 -112 356 rlineto
          -166 hlineto
          138 -368 rlineto
          -104 -108 489 108 hlineto
          -489 -180 rmoveto
          -109 159 vlineto
          -1 -59 -1 -52 -2 -50 rrcurveto
          173 hlineto
          -1 35 0 46 80 vvcurveto
          162 109 hlineto
          endchar
        </CharString>
        <CharString name="ygrave">
          -10 callgsubr
          72 191 hstem
          -88 callsubr
          -241 243 -81 callsubr
        </CharString>
        <CharString name="ytilde">
          -10 callgsubr
          83 -56 callsubr
          hintmask 11010000
          -88 callsubr
          -413 82 -64 callgsubr
          hintmask 11100000
          -91 callsubr
          hintmask 11001000
          -79 callsubr
        </CharString>
        <CharString name="z">
          -8 callsubr
          hstem
          418 hmoveto
          -32 callgsubr
          -97 callsubr
          -33 2 -33 6 -27 vhcurveto
          endchar
        </CharString>
        <CharString name="zacute">
          -8 callsubr
          52 191 hstem
          418 hmoveto
          -32 callgsubr
          -97 callsubr
          -33 2 -33 6 -27 vhcurveto
          161 650 -94 callgsubr
        </CharString>
        <CharString name="zcaron">
          -8 callsubr
          248 -20 hstem
          418 hmoveto
          -32 callgsubr
          -97 callsubr
          -33 2 -33 6 -27 vhcurveto
          224 664 -90 callsubr
        </CharString>
        <CharString name="zdotaccent">
          -8 callsubr
          57 172 hstem
          155 172 vstem
          418 hmoveto
          -32 callgsubr
          -97 callsubr
          -33 2 -33 6 -27 vhcurveto
          138 740 -85 callsubr
        </CharString>
        <CharString name="zdotbelow">
          -80 -40 callgsubr
          52 213 184 201 hstem
          142 150 vstem
          418 hmoveto
          -32 callgsubr
          -97 callsubr
          -33 2 -33 6 -27 vhcurveto
          200 -52 rmoveto
          -95 callgsubr
        </CharString>
        <CharString name="zero">
          59 10 -28 callgsubr
          hstem
          21 163 211 163 vstem
          294 830 rmoveto
          -173 -100 -149 -278 -260 88 -154 178 178 93 152 272 263 -88 154 -176 hvcurveto
          -4 -583 rmoveto
          -69 -37 89 109 112 39 84 69 68 35 -84 -109 -112 -36 -89 -69 hvcurveto
          endchar
        </CharString>
        <CharString name="zeroinferior">
          -138 -4 178 195 138 hstem
          18 111 125 110 vstem
          193 507 -49 callgsubr
        </CharString>
        <CharString name="zerosuperior">
          -148 390 178 195 138 hstem
          13 111 125 110 vstem
          188 901 -49 callgsubr
        </CharString>
      <CharString index="0">
        510 315 rmoveto
        88 -6 63 -38 53 vhcurveto
        56 -40 -67 34 -79 hhcurveto
        -38 -37 -8 -15 -33 hvcurveto
        -113 -51 -50 -133 -107 vvcurveto
        -72 23 -118 102 -68 vhcurveto
        -37 57 64 -11 59 hhcurveto
        66 58 13 25 51 hvcurveto
        2 28 1 33 34 vvcurveto
        43 -1 45 -2 38 vhcurveto
        -14 -32 -58 -16 -43 hhcurveto
        -70 -39 40 57 -17 hvcurveto
        57 186 rmoveto
        30 31 -26 -53 5 hvcurveto
        -131 hlineto
        58 8 29 21 28 hhcurveto
        return
      </CharString>
      <CharString index="1">
        24 283 rmoveto
        -1 -48 -2 -46 -48 vvcurveto
        -47 2 -47 1 -47 vhcurveto
        308 hlineto
        1 47 0 47 47 vvcurveto
        48 0 46 -1 48 vhcurveto
        -100 callsubr
        return
      </CharString>
      <CharString index="2">
        304 830 rmoveto
        -197 -94 -142 -272 -273 90 -154 201 203 88 154 273 269 -92 145 -199 hvcurveto
        -583 vmoveto
        -84 -44 80 114 112 44 88 84 86 43 -85 -115 -114 -43 -80 -86 hvcurveto
        return
      </CharString>
      <CharString index="3">
        240 609 rmoveto
        -164 -64 -110 -200 -201 64 -109 164 163 64 109 201 200 -64 110 -163 hvcurveto
        -385 vmoveto
        -55 -27 46 47 48 27 46 55 54 27 -46 -48 -47 -27 -46 -54 hvcurveto
        return
      </CharString>
      <CharString index="4">
        426 330 rmoveto
        -197 488 rlineto
        -202 hlineto
        3 -136 1 -137 -136 vvcurveto
        -136 -1 -137 -3 -136 vhcurveto
        137 489 hlineto
        212 -489 rlineto
        193 hlineto
        -2 136 -1 137 136 vvcurveto
        136 1 137 2 136 vhcurveto
        -143 hlineto
        return
      </CharString>
      <CharString index="5">
        rmoveto
        -54 43 -19 32 39 29 31 42 41 -27 32 -42 -36 -38 -21 -52 vhcurveto
        189 1 rmoveto
        -55 43 -19 32 39 29 31 42 41 -27 32 -43 -35 -38 -21 -51 vhcurveto
        endchar
      </CharString>
      <CharString index="6">
        201 vstem
        200 hmoveto
        -6 102 -1 98 102 vvcurveto
        29 29 1 2 27 hvcurveto
        133 -305 rlineto
        178 hlineto
        -163 335 rlineto
        92 37 58 71 130 vvcurveto
        211 -155 46 -195 -68 -66 -6 -6 -65 vhcurveto
        3 -146 2 -142 -161 vvcurveto
        -112 -1 -131 -4 -126 vhcurveto
        166 646 rmoveto
        4 26 28 2 21 hhcurveto
        58 49 -17 -82 -67 -35 -35 -90 -16 -20 1 2 -21 hvcurveto
        return
      </CharString>
      <CharString index="7">
        rmoveto
        -136 -567 hlineto
        -55 -7 -13 -33 -9 -19 1 3 -8 vhcurveto
        -5 -21 -3 -30 -28 vvcurveto
        -16 1 -22 5 -18 vhcurveto
        -5 20 45 -3 22 hhcurveto
        60 37 21 45 17 hvcurveto
        12 32 1 40 51 vvcurveto
        return
      </CharString>
      <CharString index="8">
        -66 callsubr
        176 190 -178 178 hintmask 11110100
        386 -36 callsubr
        hintmask 11110010
        -84 callgsubr
        hintmask 11101100
        -72 callsubr
        hintmask 11110100
        -94 callsubr
        return
      </CharString>
      <CharString index="9">
        rmoveto
        1 7 8 0 5 hhcurveto
        59 10 -26 -24 -38 -28 -17 -33 -30 -36 17 23 -15 hvcurveto
        -2 -19 0 -25 -24 vvcurveto
        -22 0 -20 2 -21 vhcurveto
        -24 26 47 -10 39 hhcurveto
        75 85 40 106 85 -51 33 -41 6 hvcurveto
        38 14 43 49 62 vvcurveto
        78 -69 39 -73 -31 -52 -7 -32 -23 vhcurveto
        -1 -21 0 -2 -23 vvcurveto
        -24 0 -17 1 -20 vhcurveto
        24 16 32 16 28 hhcurveto
        35 21 -26 -25 -25 -19 -25 -46 -8 -9 1 1 -9 hvcurveto
        -1 -12 -1 -13 -12 vvcurveto
        -15 0 -12 1 -14 vhcurveto
        return
      </CharString>
      <CharString index="10">
        39 -2 37 -5 31 vhcurveto
        -285 hlineto
        279 432 rlineto
        4 46 1 27 22 vvcurveto
        29 -2 25 -3 24 vhcurveto
        -446 hlineto
        -5 -28 -3 -37 -36 vvcurveto
        -28 2 -28 4 -22 vhcurveto
        260 hlineto
        -279 -434 rlineto
        -7 -36 -4 -35 -41 vvcurveto
        return
      </CharString>
      <CharString index="11">
        rmoveto
        30 -68 141 68 141 -68 30 68 -171 113 rlineto
        endchar
      </CharString>
      <CharString index="12">
        -48 -27 -38 -39 -38 27 -38 48 48 27 38 38 39 -27 38 -48 hvcurveto
        endchar
      </CharString>
      <CharString index="13">
        rmoveto
        91 -28 callsubr
        191 rlineto
        -146 hlineto
        endchar
      </CharString>
      <CharString index="14">
        -32 callsubr
        120 142 hintmask 01111100
        -86 callgsubr
        hintmask 10111100
        -98 callsubr
        hintmask 01111100
        -53 vlineto
        return
      </CharString>
      <CharString index="15">
        841 rmoveto
        1 -48 0 -38 -145 vvcurveto
        -230 0 -204 -2 -176 vhcurveto
        147 310 hlineto
        30 31 25 33 32 21 -25 -40 vhcurveto
        -300 147 427 vlineto
        41 -4 39 -5 18 vhcurveto
        48 -15 -55 36 -58 hhcurveto
        -46 -49 -25 -40 -32 hvcurveto
        81 2 68 8 148 vhcurveto
        return
      </CharString>
      <CharString index="16">
        0 callgsubr
        -56 -181 vvcurveto
        -207 -1 -156 -4 -117 vhcurveto
        150 hlineto
        -1 48 0 26 181 vvcurveto
        213 3 189 7 184 vhcurveto
        return
      </CharString>
      <CharString index="17">
        -42 -32 34 50 -3 hvcurveto
        -69 hlineto
        -94 1 69 -50 76 hhcurveto
        76 69 50 94 1 hvcurveto
        endchar
      </CharString>
      <CharString index="18">
        38 24 28 38 29 26 -16 -60 vhcurveto
        -290 147 427 vlineto
        44 -5 37 -7 20 vhcurveto
        44 -15 -49 37 -59 hhcurveto
        -48 -49 -25 -40 -32 hvcurveto
        return
      </CharString>
      <CharString index="19">
        269 477 rmoveto
        -112 341 rlineto
        -166 hlineto
        194 -518 -1 -123 -1 -91 -3 -86 rlinecurve
        173 hlineto
        -1 48 0 26 181 vvcurveto
        45 vlineto
        195 518 rlineto
        -165 hlineto
        return
      </CharString>
      <CharString index="20">
        103 -90 26 -59 -26 -55 -6 -32 -23 vhcurveto
        -1 -21 -1 -16 -23 vvcurveto
        -24 1 -25 1 -19 vhcurveto
        24 15 29 18 27 hhcurveto
        21 30 -13 -33 hvcurveto
        -76 -139 -12 -138 vvcurveto
        -109 264 vlineto
        2 24 0 23 25 vvcurveto
        25 -2 27 -2 24 vhcurveto
        -149 -6 rlineto
        6 80 151 19 135 vvcurveto
        return
      </CharString>
      <CharString index="21">
        433 hmoveto
        97 -1 168 50 vvcurveto
        85 4 110 2 88 vhcurveto
        -147 -305 hlineto
        return
      </CharString>
      <CharString index="22">
        408 -36 callsubr
        -397 -185 115 hlineto
        1 -46 0 -54 -76 vvcurveto
        -207 -2 -133 -3 -117 vhcurveto
        168 hlineto
        -1 48 0 26 181 vvcurveto
        140 1 120 3 118 vhcurveto
        115 hlineto
        return
      </CharString>
      <CharString index="23">
        12 -327 0 -22 -20 vvcurveto
        -144 -21 -70 -78 -76 -25 67 128 vhcurveto
        return
      </CharString>
      <CharString index="24">
        -69 -38 -60 -54 -50 33 -51 73 57 49 51 59 46 -38 59 -67 hvcurveto
        return
      </CharString>
      <CharString index="25">
        rmoveto
        -89 -53 -73 -137 -127 46 -76 93 93 48 75 133 130 -46 75 -92 hvcurveto
        -2 -298 rmoveto
        -38 -22 43 52 54 23 38 38 39 21 -38 -53 -53 -21 -43 -40 hvcurveto
        return
      </CharString>
      <CharString index="26">
        41 -35 -41 20 -49 hhcurveto
        -130 -107 -143 -175 -163 92 -114 132 49 39 16 40 50 hvcurveto
        -171 291 rmoveto
        -19 callgsubr
        return
      </CharString>
      <CharString index="27">
        25 598 rmoveto
        -97 1 -168 -50 vvcurveto
        -85 0 -110 -1 -88 vhcurveto
        145 300 hlineto
        return
      </CharString>
      <CharString index="28">
        -30 -22 21 30 30 22 20 30 30 20 -20 -30 -30 -20 -21 -30 hvcurveto
        -48 vmoveto
        67 34 46 53 53 -34 43 -67 -67 -36 -43 -53 -53 36 -46 67 hvcurveto
        return
      </CharString>
      <CharString index="29">
        rmoveto
        -24 -150 rlineto
        96 hlineto
        60 150 rlineto
        endchar
      </CharString>
      <CharString index="30">
        hstem
        -96 callsubr
        return
      </CharString>
      <CharString index="31">
        367 68 rmoveto
        -51 47 73 -28 87 hhcurveto
        59 59 13 25 51 hvcurveto
        2 28 1 33 42 vvcurveto
        42 -1 44 -2 32 vhcurveto
        -17 -41 -57 -13 -37 hhcurveto
        -62 -45 35 62 -17 hvcurveto
        280 hlineto
        1 9 0 8 16 vvcurveto
        160 -82 101 -135 -80 -63 -35 -49 -22 vhcurveto
        -4 hlineto
        52 -29 -52 32 -85 hhcurveto
        -66 -81 -19 -28 -47 hvcurveto
        43 -149 rlineto
        21 45 51 17 40 hhcurveto
        43 32 -20 -56 hvcurveto
        -198 -22 -71 -52 -125 vvcurveto
        -119 64 -68 110 74 71 31 48 40 vhcurveto
        return
      </CharString>
      <CharString index="32">
        -105 18 -21 24 -67 callsubr
        return
      </CharString>
      <CharString index="33">
        44 -10 24 -32 -36 vvcurveto
        -34 -22 -38 -37 -27 vhcurveto
        42 -37 rlineto
        89 38 55 88 87 vvcurveto
        73 -38 50 -65 vhcurveto
        return
      </CharString>
      <CharString index="34">
        -20 hstem
        31 168 139 159 vstem
        337 -36 callsubr
        -103 1 -71 -122 vvcurveto
        -148 hlineto
        1 96 3 90 5 110 rrcurveto
        -169 hlineto
        -124 1 -67 -182 -14 callsubr
        -1 108 -1 89 78 vvcurveto
        148 hlineto
        -1 -111 -2 -84 -2 -80 rrcurveto
        166 hlineto
        -1 149 -1 113 98 vvcurveto
        168 2 121 7 169 vhcurveto
        return
      </CharString>
      <CharString index="35">
        rmoveto
        81 hlineto
        94 191 rlineto
        -110 hlineto
        105 -191 rmoveto
        81 hlineto
        94 191 rlineto
        -110 hlineto
        endchar
      </CharString>
      <CharString index="36">
        rmoveto
        -124 -259 rlineto
        -133 157 -99 111 99 36 133 -36 259 vlineto
        -111 -91 rmoveto
        -168 -76 vlineto
        endchar
      </CharString>
      <CharString index="37">
        -6 callsubr
        458 151 return
      </CharString>
      <CharString index="38">
        -68 callgsubr
        -11 -20 return
      </CharString>
      <CharString index="39">
        10 -70 callgsubr
        return
      </CharString>
      <CharString index="40">
        514 598 rmoveto
        -142 -50 hlineto
        return
      </CharString>
      <CharString index="41">
        -193 rmoveto
        147 27 hlineto
        -48 179 rlineto
        -16 21 24 -8 21 hhcurveto
        48 40 36 40 16 hvcurveto
        hintmask 10111100
        -65 140 vlineto
        97 -1 168 50 vvcurveto
        85 4 110 2 88 vhcurveto
        -140 hlineto
        -10 -308 rlineto
        hintmask 11011100
        -35 -1 -24 -23 -34 hhcurveto
        -34 -24 24 36 hvcurveto
        306 -147 vlineto
        endchar
      </CharString>
      <CharString index="42">
        -148 0 -138 -2 -56 vhcurveto
        return
      </CharString>
      <CharString index="43">
        rmoveto
        29 34 29 10 28 hhcurveto
        return
      </CharString>
      <CharString index="44">
        2 -11 229 97 107 79 108 return
      </CharString>
      <CharString index="45">
        rmoveto
        -24 -150 rlineto
        96 hlineto
        60 151 rlineto
        endchar
      </CharString>
      <CharString index="46">
        -50 1 -57 -85 vvcurveto
        -162 vlineto
        return
      </CharString>
      <CharString index="47">
        108 188 -1 -2 74 hvcurveto
        return
      </CharString>
      <CharString index="48">
        rmoveto
        -55 callsubr
        return
      </CharString>
      <CharString index="49">
        24 815 rmoveto
        -62 callsubr
        return
      </CharString>
      <CharString index="50">
        -1 -104 -2 -124 vhcurveto
        -9 83 74 -2 31 hhcurveto
        271 128 166 247 126 -33 115 -68 77 hvcurveto
        83 -74 -101 27 -117 hhcurveto
        -49 -74 -5 -10 -75 hvcurveto
        194 -151 rmoveto
        133 42 -115 -84 -112 -74 -91 -99 -9 return
      </CharString>
      <CharString index="51">
        14 21 -43 callgsubr
        return
      </CharString>
      <CharString index="52">
        21 -37 callgsubr
        return
      </CharString>
      <CharString index="53">
        -77 callsubr
        -70 callsubr
        return
      </CharString>
      <CharString index="54">
        -44 10 -24 32 37 vvcurveto
        34 22 37 37 27 vhcurveto
        -42 38 rlineto
        -89 -39 -55 -87 -88 vvcurveto
        -72 38 -50 65 vhcurveto
        return
      </CharString>
      <CharString index="55">
        -50 callsubr
        89 211 11 -20 hstemhm
        60 136 -136 215 return
      </CharString>
      <CharString index="56">
        -41 -11 235 187 198 return
      </CharString>
      <CharString index="57">
        222 hstemhm
        60 136 return
      </CharString>
      <CharString index="58">
        rmoveto
        -110 -65 -91 -168 -158 57 -94 115 114 60 93 164 161 -57 93 -114 hvcurveto
        -2 -333 rmoveto
        -40 -22 45 54 56 23 40 40 41 21 -40 -55 -55 -21 -45 -42 hvcurveto
        endchar
      </CharString>
      <CharString index="59">
        rmoveto
        -94 330 94 vlineto
        endchar
      </CharString>
      <CharString index="60">
        77 -11 246 583 -20 return
      </CharString>
      <CharString index="61">
        -11 callsubr
        -50 callgsubr
        return
      </CharString>
      <CharString index="62">
        57 36 40 48 return
      </CharString>
      <CharString index="63">
        hmoveto
        -60 callsubr
        return
      </CharString>
      <CharString index="64">
        -35 callsubr
        475 -20 return
      </CharString>
      <CharString index="65">
        3 26 1 25 23 vvcurveto
        25 -2 25 -2 24 vhcurveto
        return
      </CharString>
      <CharString index="66">
        145 117 147 return
      </CharString>
      <CharString index="67">
        -205 153 return
      </CharString>
      <CharString index="68">
        hstemhm
        10 191 return
      </CharString>
      <CharString index="69">
        67 66 -39 67 hhcurveto
        40 40 6 23 40 hvcurveto
        126 vlineto
        -23 -40 -40 -6 -40 hhcurveto
        return
      </CharString>
      <CharString index="70">
        -21 818 -20 return
      </CharString>
      <CharString index="71">
        -63 21 -30 callsubr
        return
      </CharString>
      <CharString index="72">
        hlineto
        1 25 2 23 25 vvcurveto
        24 -2 24 -1 25 vhcurveto
        return
      </CharString>
      <CharString index="73">
        -181 rmoveto
        142 230 hlineto
        -35 36 51 -25 53 hhcurveto
        126 96 137 182 175 -89 126 -119 -52 -54 -24 -37 -48 hvcurveto
        return
      </CharString>
      <CharString index="74">
        -57 -36 -40 -54 -11 0 -6 1 -11 hvcurveto
        return
      </CharString>
      <CharString index="75">
        4 28 3 38 40 vvcurveto
        return
      </CharString>
      <CharString index="76">
        45 -47 -62 24 -80 hhcurveto
        -128 -389 rmoveto
        112 44 88 84 34 28 -14 -24 20 vhcurveto
        -189 -281 rlineto
        -14 32 -7 40 47 vvcurveto
        return
      </CharString>
      <CharString index="77">
        hstemhm
        25 -41 callgsubr
        return
      </CharString>
      <CharString index="78">
        143 46 143 return
      </CharString>
      <CharString index="79">
        -21 652 189 return
      </CharString>
      <CharString index="80">
        697 -3 rmoveto
        150 0 56 -4 62 vhcurveto
        -192 119 163 149 -163 126 191 159 -491 hlineto
        return
      </CharString>
      <CharString index="81">
        -54 hlineto
        164 1 83 4 104 vhcurveto
        return
      </CharString>
      <CharString index="82">
        21 -50 callsubr
        return
      </CharString>
      <CharString index="83">
        855 rmoveto
        -70 -221 -151 -422 -79 -216 93 -38 rcurveline
        90 257 123 340 94 262 rrcurveto
        endchar
      </CharString>
      <CharString index="84">
        60 -60 144 hstemhm
        return
      </CharString>
      <CharString index="85">
        -205 150 return
      </CharString>
      <CharString index="86">
        31 155 207 222 return
      </CharString>
      <CharString index="87">
        -39 3 -35 4 -26 vhcurveto
        193 hlineto
        -211 -192 rlineto
        -7 -36 -3 -35 -41 vvcurveto
        -33 callsubr
        return
      </CharString>
      <CharString index="88">
        -45 callgsubr
        49 38 -41 -51 return
      </CharString>
      <CharString index="89">
        -40 callgsubr
        73 -21 return
      </CharString>
      <CharString index="90">
        210 -174 136 return
      </CharString>
      <CharString index="91">
        239 386 216 return
      </CharString>
      <CharString index="92">
        13 163 257 return
      </CharString>
      <CharString index="93">
        rmoveto
        -84 -44 80 114 112 44 88 84 86 43 -85 -115 -114 -43 -80 -86 hvcurveto
        endchar
      </CharString>
      <CharString index="94">
        -21 302 149 201 178 return
      </CharString>
      <CharString index="95">
        -33 -6 13 55 hvcurveto
        return
      </CharString>
      <CharString index="96">
        4 callsubr
        650 191 6 callsubr
        return
      </CharString>
      <CharString index="97">
        -68 -160 -21 779 -20 return
      </CharString>
      <CharString index="98">
        -214 -818 rlineto
        170 hlineto
        37 164 rlineto
        147 hlineto
        -71 -1 -61 -1 -31 vhcurveto
        return
      </CharString>
      <CharString index="99">
        177 0 238 360 -20 return
      </CharString>
      <CharString index="100">
        -14 0 213 426 179 return
      </CharString>
      <CharString index="101">
        hstemhm
        30 160 return
      </CharString>
      <CharString index="102">
        -11 115 -83 -21 291 111 15 115 187 111 -12 -20 hstemhm
        return
      </CharString>
      <CharString index="103">
        733 rmoveto
        30 -68 121 68 121 -68 30 68 -151 113 rlineto
        return
      </CharString>
      <CharString index="104">
        10 -21 32 -50 callsubr
        -72 151 10 -50 callgsubr
        return
      </CharString>
      <CharString index="105">
        57 36 39 55 10 0 7 -1 10 hvcurveto
        return
      </CharString>
      <CharString index="106">
        148 351 -20 hstemhm
        return
      </CharString>
      <CharString index="107">
        rmoveto
        -124 1 return
      </CharString>
      <CharString index="108">
        -55 -31 -48 -43 -40 27 -41 58 46 39 41 47 37 -31 47 -53 hvcurveto
        return
      </CharString>
      <CharString index="109">
        -90 10 3 callgsubr
        return
      </CharString>
      <CharString index="110">
        -21 474 146 return
      </CharString>
      <CharString index="111">
        -20 -61 callsubr
        return
      </CharString>
      <CharString index="112">
        361 rmoveto
        return
      </CharString>
      <CharString index="113">
        -172 -21 182 243 -211 -48 callsubr
        hstemhm
        return
      </CharString>
      <CharString index="114">
        -3 -8 -20 -1 -9 hhcurveto
        -12 callgsubr
        140 vlineto
        return
      </CharString>
      <CharString index="115">
        hstemhm
        18 callgsubr
        return
      </CharString>
      <CharString index="116">
        15 callgsubr
        -4 210 -180 147 return
      </CharString>
      <CharString index="117">
        -7 callsubr
        74 -21 619 return
      </CharString>
      <CharString index="118">
        -44 callgsubr
        77 248 rmoveto
        return
      </CharString>
      <CharString index="119">
        -15 rlineto
        132 vlineto
        -169 -16 17 236 rlineto
        return
      </CharString>
      <CharString index="120">
        -21 -21 35 125 105 75 98 109 -109 return
      </CharString>
      <CharString index="121">
        145 236 124 return
      </CharString>
      <CharString index="122">
        -21 619 211 hstemhm
        return
      </CharString>
      <CharString index="123">
        -236 -82 106 332 90 322 106 hstemhm
        return
      </CharString>
      <CharString index="124">
        97 10 -6 callsubr
        641 189 -12 -20 return
      </CharString>
      <CharString index="125">
        31 133 262 140 return
      </CharString>
      <CharString index="126">
        126 -87 87 -87 126 return
      </CharString>
      <CharString index="127">
        -57 123 96 92 96 276 -20 hstem
        return
      </CharString>
      <CharString index="128">
        -48 callsubr
        31 -20 -32 callsubr
        return
      </CharString>
</ttFont>
